<?xml version="1.0" standalone="no"?>
<!DOCTYPE svg PUBLIC "-//W3C//DTD SVG 20010904//EN"
 "http://www.w3.org/TR/2001/REC-SVG-20010904/DTD/svg10.dtd">
<svg version="1.0" xmlns="http://www.w3.org/2000/svg"
 width="1920.000000pt" height="1200.000000pt" viewBox="0 0 1920.000000 1200.000000"
 preserveAspectRatio="xMidYMid meet">
<metadata>
Created by potrace 1.15, written by Peter Selinger 2001-2017
</metadata>
<g transform="translate(0.000000,1200.000000) scale(0.100000,-0.100000)"
fill="#000000" stroke="none">
<path d="M0 10285 c0 -1052 4 -1695 9 -1695 6 0 13 5 17 11 3 6 16 8 28 4 43
-14 106 -22 106 -13 0 16 75 7 100 -12 27 -21 60 -26 60 -10 0 6 18 10 40 10
33 0 47 -7 79 -39 37 -37 40 -38 66 -25 32 16 91 19 100 4 4 -6 15 -10 24 -8
10 2 26 -3 35 -11 15 -13 22 -13 49 1 39 20 87 29 87 16 0 -10 72 1 80 13 3 4
12 4 20 -1 20 -13 60 -13 60 0 0 6 27 10 60 10 44 0 61 -4 68 -16 10 -17 51
-28 172 -45 126 -18 143 -20 214 -24 38 -2 73 -8 79 -14 6 -6 20 -5 39 1 21 8
36 7 51 -1 13 -7 59 -11 112 -10 50 1 169 -1 265 -5 166 -7 218 -8 258 -6 9 1
37 -4 62 -10 25 -6 66 -13 93 -17 26 -3 47 -9 47 -14 0 -5 20 -6 44 -3 27 4
46 2 50 -5 4 -6 19 -11 33 -11 16 0 27 -7 30 -19 3 -13 12 -18 24 -16 11 2 17
0 14 -4 -8 -14 59 -20 131 -11 38 5 71 6 74 2 10 -14 109 -20 129 -8 5 4 42
-1 81 -10 39 -9 83 -13 98 -9 44 11 572 15 572 5 0 -6 -18 -10 -40 -10 -22 0
-40 -5 -40 -11 0 -11 190 -7 263 6 33 6 39 5 44 -13 4 -17 8 -19 23 -10 10 6
26 8 36 3 13 -5 15 -9 7 -12 -21 -8 -15 -33 7 -33 12 0 20 7 20 18 0 14 4 13
19 -7 18 -23 25 -25 142 -27 68 -2 147 -5 174 -9 72 -8 127 -5 141 6 6 5 36 9
65 9 93 -2 277 7 289 15 6 4 17 2 24 -4 10 -8 21 -8 42 0 16 6 89 11 162 12
105 1 135 -1 142 -13 7 -11 11 -12 25 0 12 10 19 10 27 2 17 -17 122 -15 164
3 26 10 42 12 61 4 20 -7 34 -7 51 2 17 10 28 10 41 2 20 -13 69 -6 91 12 11
10 29 11 67 5 29 -5 78 -5 110 0 32 4 82 5 111 3 35 -4 52 -2 52 6 0 8 5 8 19
-1 16 -10 25 -9 45 1 29 16 58 8 50 -13 -8 -22 17 -32 32 -12 11 16 13 16 16
-6 l3 -23 22 23 c26 25 53 29 53 8 0 -8 14 -19 30 -25 17 -5 30 -17 30 -25 0
-9 5 -16 11 -16 7 0 10 15 7 40 l-4 40 43 0 c42 0 43 -1 44 -32 l0 -33 16 33
c12 22 24 32 40 32 13 0 23 -4 23 -10 0 -5 18 -10 40 -10 22 0 40 5 40 10 0 6
7 10 15 10 18 0 57 20 67 35 5 6 8 5 8 -4 0 -8 7 -11 19 -8 17 4 18 1 10 -26
-11 -37 -7 -41 26 -33 18 5 25 12 21 21 -4 12 4 15 34 15 22 0 40 -4 40 -9 0
-14 35 -19 55 -8 10 5 34 11 54 12 20 1 41 3 46 5 32 8 46 -1 43 -27 -2 -24
-7 -28 -30 -26 -19 1 -28 -3 -28 -13 0 -8 10 -14 25 -14 14 0 37 -7 50 -16 22
-14 25 -15 25 -1 0 9 8 18 18 21 9 2 0 2 -20 -1 -30 -4 -38 -2 -38 10 0 10 7
15 20 12 11 -2 20 0 20 6 0 5 7 9 16 9 11 0 15 6 11 20 -4 14 0 20 12 20 9 0
26 7 37 15 25 19 48 19 64 0 9 -11 32 -15 77 -15 58 0 64 2 53 15 -7 9 -11 17
-9 18 2 1 16 9 32 17 15 7 27 19 27 27 0 30 18 10 24 -28 5 -32 10 -40 22 -35
9 3 20 6 25 6 5 0 9 7 9 16 0 8 4 12 10 9 6 -4 10 6 10 23 0 25 3 29 19 25 26
-7 42 40 41 125 0 24 4 40 10 37 5 -3 10 7 12 22 2 16 7 26 12 25 16 -6 26 22
26 76 0 51 22 92 50 92 6 0 10 7 10 15 0 9 9 25 20 37 11 12 20 32 20 45 0 13
4 23 8 23 4 0 21 24 36 53 15 28 38 68 50 87 13 19 31 48 40 64 15 24 22 27
49 22 18 -4 46 -9 62 -12 86 -14 155 -52 155 -84 0 -6 20 -41 45 -78 33 -49
45 -77 45 -104 0 -20 5 -40 10 -43 6 -3 10 -16 10 -29 0 -28 35 -66 60 -66 14
0 20 -7 20 -23 0 -12 9 -41 21 -62 11 -22 21 -60 22 -84 2 -46 -5 -55 -55 -65
-15 -4 -33 -13 -42 -21 -8 -8 -21 -15 -29 -15 -7 0 -19 -11 -26 -24 -13 -24
-28 -34 -88 -56 -22 -8 -33 -19 -33 -32 0 -23 -19 -44 -45 -49 -11 -2 -22 -15
-25 -29 -5 -21 -12 -25 -39 -23 -19 0 -40 10 -51 24 -11 12 -20 17 -20 11 0
-7 -6 -12 -13 -12 -8 0 -20 -12 -28 -27 -18 -36 -31 -49 -55 -57 -10 -3 -30
-24 -44 -46 -14 -22 -28 -40 -32 -40 -5 0 -8 -5 -8 -11 0 -13 -31 -45 -39 -41
-3 2 -25 -2 -49 -9 -43 -12 -72 -42 -86 -86 -7 -23 -19 -27 -63 -23 -26 2 -83
-35 -83 -54 0 -16 -46 -56 -65 -56 -22 0 -23 -48 -2 -63 16 -10 -20 -37 -49
-37 -28 0 -37 -26 -28 -75 5 -28 3 -35 -10 -35 -12 0 -16 -10 -16 -39 0 -31
-4 -41 -20 -46 -25 -8 -26 -27 -1 -44 16 -12 17 -16 6 -28 -8 -7 -19 -13 -25
-13 -6 0 -20 -8 -31 -19 l-20 -19 25 -25 c31 -32 33 -48 5 -67 -54 -38 -62
-49 -48 -63 8 -7 23 -16 34 -21 11 -4 15 -10 10 -14 -6 -4 -15 -18 -22 -32
-27 -59 -34 -90 -31 -126 3 -23 -1 -48 -9 -60 -12 -19 -11 -25 10 -49 21 -25
26 -26 47 -15 13 7 29 17 34 22 6 5 30 23 54 40 l44 31 -27 23 -28 23 31 18
c17 10 41 36 52 58 12 22 39 54 61 70 22 17 51 41 66 54 15 14 39 25 60 26 18
1 36 5 39 8 4 3 17 2 31 -4 33 -12 87 -11 117 2 19 9 40 9 87 -1 72 -16 79
-10 71 56 l-5 44 46 0 c25 0 49 -4 52 -10 11 -18 24 -11 72 38 27 26 62 58 79
70 18 12 35 33 38 47 4 14 12 25 19 25 32 0 77 86 77 148 0 17 5 34 10 37 6 3
10 24 10 46 0 37 2 39 29 39 17 0 33 5 36 10 8 12 45 13 45 1 0 -5 11 -11 25
-13 18 -4 29 1 39 17 18 27 73 39 111 25 33 -12 95 -69 95 -87 0 -7 5 -13 10
-13 6 0 10 -7 10 -15 0 -8 4 -23 9 -33 15 -31 31 -88 31 -115 0 -14 4 -37 10
-51 10 -27 -3 -137 -21 -168 -5 -10 -9 -26 -9 -35 0 -10 -9 -29 -20 -43 -11
-14 -20 -32 -20 -41 0 -23 -88 -191 -111 -212 -10 -10 -19 -25 -19 -35 0 -15
-2 -15 -10 -2 -6 10 -10 11 -10 3 0 -7 -6 -13 -12 -13 -7 0 -26 -12 -43 -26
-16 -14 -43 -33 -60 -41 -48 -26 -72 -72 -45 -88 14 -9 42 11 109 74 29 28 57
48 62 45 5 -3 9 0 9 6 0 6 14 8 40 4 l40 -7 0 45 c0 24 5 49 11 55 6 6 16 21
23 34 14 28 30 30 34 4 2 -11 7 -29 12 -40 15 -35 19 -69 11 -79 -4 -6 -16
-34 -26 -63 -10 -29 -22 -50 -27 -47 -17 11 -21 -29 -5 -41 10 -7 17 -18 17
-26 0 -8 5 -21 10 -29 7 -12 14 -9 41 18 17 17 35 32 39 32 16 0 60 157 60
215 0 20 4 43 9 53 18 37 31 87 22 90 -10 3 10 52 22 52 7 0 12 -91 8 -139 -1
-14 2 -34 7 -45 6 -12 13 -29 16 -38 10 -31 32 -19 45 23 7 22 19 43 27 46 8
3 14 19 14 40 0 26 5 36 20 40 15 4 20 14 20 39 0 18 -4 36 -10 39 -6 4 -10
58 -10 130 0 72 4 126 10 130 6 3 10 27 10 52 0 32 6 50 19 62 10 9 29 39 42
66 20 42 29 50 54 53 53 5 71 11 101 37 35 30 51 32 59 5 8 -25 27 -25 50 0
25 27 55 26 55 -2 0 -12 3 -19 6 -16 3 3 17 -5 31 -18 14 -13 30 -24 35 -24
14 0 33 -23 36 -45 2 -11 10 -27 16 -35 21 -24 25 -57 16 -122 -8 -56 -7 -63
12 -80 12 -10 29 -18 40 -18 10 0 18 -4 18 -10 0 -5 9 -10 20 -10 11 0 20 -4
20 -10 0 -5 9 -10 20 -10 11 0 20 -4 20 -8 0 -5 11 -15 25 -22 18 -10 25 -22
25 -45 0 -17 4 -35 9 -40 5 -6 12 -25 14 -43 5 -32 4 -32 -29 -30 -19 1 -39
-3 -45 -9 -14 -14 -44 -1 -70 29 -12 13 -30 18 -68 18 -29 0 -61 5 -72 11 -22
11 -119 -7 -119 -23 0 -4 -7 -8 -15 -8 -22 0 -18 22 10 49 33 31 21 46 -18 23
-18 -11 -44 -22 -59 -26 -24 -5 -28 -11 -28 -42 0 -21 -9 -49 -22 -67 -18 -24
-22 -43 -20 -89 2 -54 1 -58 -20 -58 -19 0 -20 2 -8 10 11 7 5 10 -24 10 -22
0 -47 7 -58 17 -24 22 -23 6 7 -74 33 -86 64 -133 90 -133 17 0 17 -2 5 -10
-12 -8 -11 -10 8 -10 15 0 22 -6 22 -19 0 -38 83 -71 96 -38 6 16 -33 107 -46
107 -17 0 -50 44 -50 66 0 18 4 21 23 16 26 -6 57 -38 58 -61 1 -9 4 -3 8 13
9 43 56 69 102 56 65 -19 169 -6 169 22 0 4 6 8 14 8 7 0 27 14 44 30 24 22
41 30 69 30 20 0 34 3 30 6 -8 9 21 37 31 30 5 -3 21 2 36 10 16 7 33 14 38
14 15 0 68 -47 61 -54 -4 -3 3 -6 15 -6 11 0 24 -4 27 -10 3 -6 50 -10 106
-10 54 0 107 -4 117 -9 9 -5 37 -15 62 -21 25 -7 55 -17 68 -23 13 -6 36 -10
51 -9 32 2 56 -20 47 -43 -7 -20 3 -45 19 -45 7 0 25 -13 38 -30 14 -16 32
-30 40 -30 15 0 71 -116 62 -130 -6 -9 -24 -8 -42 3 -8 5 -13 3 -13 -7 0 -9 6
-16 14 -16 21 0 27 -59 7 -69 -9 -5 -22 -6 -28 -4 -14 5 -17 -15 -7 -41 3 -9
10 -13 15 -10 5 3 9 1 9 -4 0 -5 16 -8 35 -7 19 2 38 -1 41 -6 3 -5 -2 -9 -10
-9 -9 0 -16 -4 -16 -9 0 -5 -11 -23 -25 -39 -13 -16 -23 -31 -20 -33 2 -2 -2
-31 -9 -64 -7 -33 -10 -78 -8 -99 4 -38 4 -39 -22 -34 -21 4 -26 2 -22 -9 4
-8 3 -20 -1 -26 -5 -7 -13 -28 -18 -47 -9 -28 -16 -35 -37 -35 -14 0 -35 -8
-45 -17 -23 -21 -49 -23 -57 -5 -3 8 -8 7 -16 -5 -15 -24 -51 -23 -83 2 -14
11 -30 20 -36 20 -19 0 -12 -29 9 -40 14 -8 20 -21 20 -45 0 -38 -18 -47 -40
-20 -10 12 -16 13 -24 5 -8 -8 -7 -13 2 -19 7 -4 -12 -6 -43 -3 -50 4 -55 3
-55 -16 0 -11 7 -25 15 -32 19 -16 19 -39 -1 -47 -8 -3 -13 -12 -10 -19 9 -24
-12 -25 -53 -4 -22 11 -49 20 -61 20 -11 0 -20 4 -20 9 0 5 -6 9 -12 8 -54 -2
-68 4 -68 26 1 20 2 20 11 5 13 -23 20 -23 91 3 40 15 58 27 57 38 -3 31 1 39
22 44 36 10 20 42 -23 45 -29 2 -44 -3 -65 -22 -15 -14 -34 -26 -41 -26 -7 0
-15 -7 -18 -15 -4 -8 -12 -15 -20 -15 -8 0 -14 -5 -14 -11 0 -6 -6 -9 -12 -6
-7 2 -12 10 -10 16 1 6 -5 11 -13 11 -18 0 -49 45 -40 60 3 5 15 10 25 10 12
0 20 9 23 28 9 49 5 62 -20 62 -12 0 -23 -3 -23 -7 0 -5 -23 -8 -50 -8 -38 0
-51 4 -56 17 -11 37 -46 68 -75 68 -34 0 -38 -19 -8 -38 13 -8 19 -21 17 -35
-2 -17 -11 -23 -38 -25 -19 -2 -41 -8 -47 -14 -9 -7 -13 -7 -13 0 0 21 12 42
21 36 5 -3 9 -1 9 5 0 19 -21 23 -45 7 -17 -11 -25 -26 -25 -45 0 -34 -9 -44
-26 -30 -17 14 -38 -24 -29 -51 10 -31 -2 -39 -35 -27 -23 9 -30 19 -35 48 -6
34 -9 37 -28 30 -27 -10 -33 -36 -17 -66 12 -23 10 -74 -5 -108 -6 -14 -2 -20
13 -24 20 -5 32 -28 25 -50 -2 -7 -20 -17 -39 -23 -19 -6 -34 -16 -34 -21 0
-5 -12 -9 -26 -9 -25 0 -25 2 -19 40 8 49 -7 53 -63 15 -51 -35 -73 -32 -115
16 -43 48 -47 69 -12 69 36 0 50 32 26 59 -14 16 -21 18 -24 9 -3 -7 -6 3 -6
23 -1 20 -8 56 -16 80 -11 31 -12 45 -5 47 7 3 3 13 -10 27 -11 12 -22 31 -23
42 -1 17 -8 20 -42 21 -22 0 -47 -7 -56 -14 -17 -15 -79 -9 -79 7 0 5 -11 9
-24 9 -14 0 -28 4 -31 10 -3 5 -24 10 -46 10 -21 0 -47 4 -57 9 -60 30 -70 33
-90 22 -11 -6 -30 -11 -41 -11 -12 0 -21 -4 -21 -10 0 -5 -7 -10 -15 -10 -27
0 -125 -87 -125 -111 0 -10 -4 -19 -10 -19 -5 0 -10 -9 -10 -20 0 -11 -4 -20
-10 -20 -5 0 -10 -11 -10 -24 0 -14 5 -28 10 -31 6 -3 10 -17 10 -31 0 -13 6
-34 13 -45 10 -17 10 -23 0 -26 -19 -7 -16 -61 5 -84 11 -10 25 -32 32 -47 7
-15 16 -34 21 -42 35 -57 46 -70 57 -70 7 0 11 -4 7 -9 -3 -5 4 -12 15 -16 22
-7 27 -30 7 -38 -7 -3 -21 1 -30 8 -22 16 -50 9 -73 -16 -12 -13 -15 -29 -11
-58 6 -46 -16 -81 -51 -81 -11 0 -23 -6 -25 -12 -4 -10 -6 -10 -6 0 -1 6 -10
12 -22 12 -30 0 -58 18 -105 64 -63 62 -83 106 -94 204 -5 48 -14 116 -19 152
-8 52 -7 69 4 86 8 12 17 57 20 100 4 44 15 112 26 152 10 40 19 86 19 102 0
17 4 30 9 30 5 0 11 15 14 33 9 51 19 92 26 97 13 10 31 50 31 67 0 15 -9 18
-55 18 -47 0 -53 -2 -38 -12 9 -7 12 -13 6 -13 -6 0 -13 -15 -16 -32 -13 -87
-39 -206 -51 -233 -41 -92 -98 -195 -107 -195 -4 0 -10 -12 -14 -27 -3 -16
-18 -40 -33 -55 -15 -15 -35 -37 -44 -48 -39 -45 -88 -16 -88 52 0 24 -7 53
-15 65 -18 25 -5 73 20 73 12 0 15 13 15 61 0 57 3 65 41 113 38 47 41 55 35
95 -5 37 -2 48 19 73 20 24 23 33 14 44 -20 24 -57 16 -81 -17 -13 -17 -34
-35 -47 -40 -18 -8 -22 -14 -17 -34 6 -24 4 -25 -34 -25 -23 0 -39 -3 -37 -7
3 -5 1 -18 -4 -30 -7 -20 -15 -23 -66 -23 -32 0 -71 -7 -86 -15 -21 -11 -34
-12 -48 -5 -13 7 -24 7 -39 -2 -17 -11 -22 -10 -34 7 -8 11 -17 31 -20 45 -2
14 -18 33 -35 43 -16 9 -32 26 -36 36 -3 10 -19 24 -35 31 -16 7 -32 20 -35
30 -9 29 -2 80 12 80 7 0 13 5 13 10 0 6 7 10 15 10 8 0 15 3 16 8 0 4 29 30
64 57 35 28 64 55 65 61 0 6 12 16 26 23 15 6 24 15 20 18 -3 4 -12 1 -18 -5
-7 -7 -28 -12 -48 -12 -21 0 -62 -13 -95 -30 -60 -31 -87 -32 -132 -4 -21 13
-39 13 -95 -3 -20 -5 -21 -53 -1 -53 7 0 17 -18 23 -40 6 -22 19 -44 30 -50
10 -5 21 -23 25 -39 3 -16 15 -37 26 -47 10 -9 19 -27 19 -39 0 -18 -5 -20
-37 -17 -23 3 -50 15 -68 32 -35 32 -62 43 -70 30 -11 -18 -32 -10 -31 12 1
15 -8 27 -27 36 -16 8 -36 26 -45 40 -16 26 -31 34 -59 35 -7 0 -13 8 -13 18
0 13 -7 16 -32 15 -21 -2 -36 4 -47 17 -9 11 -31 37 -49 58 l-33 38 40 20 c22
12 50 21 62 21 15 0 19 5 15 15 -3 8 0 15 7 15 9 0 8 3 -1 9 -10 6 -8 10 10
15 23 7 23 8 -7 21 -16 8 -47 14 -67 15 -24 0 -47 9 -66 25 -25 21 -41 25
-111 27 -46 1 -85 6 -88 11 -3 5 -83 7 -179 5 -128 -2 -176 0 -186 10 -6 6
-20 12 -29 12 -10 0 -19 6 -22 13 -4 10 -7 10 -18 -1 -7 -6 -34 -12 -60 -12
-28 0 -49 -5 -51 -12 -3 -8 -13 -4 -29 11 -13 12 -35 29 -49 36 -24 12 -90 78
-90 90 0 4 -22 34 -45 59 -6 6 -30 35 -53 64 -80 102 -150 172 -212 212 -25
16 -50 34 -57 40 -14 12 -38 13 -108 5 -52 -6 -91 -27 -109 -60 -6 -11 -19
-32 -29 -47 -17 -26 -26 -82 -15 -93 9 -10 38 7 38 21 0 8 3 13 8 13 26 -4 62
3 57 11 -3 6 1 10 9 10 9 0 16 4 16 9 0 7 28 13 137 26 22 3 73 -37 73 -57 0
-5 4 -6 10 -3 6 3 10 1 10 -4 0 -6 7 -11 16 -11 17 0 83 -68 84 -86 0 -7 7
-15 16 -18 8 -3 12 -10 9 -16 -3 -5 -1 -10 4 -10 6 0 11 -11 11 -25 0 -14 4
-25 8 -25 13 0 30 -42 37 -94 4 -25 11 -46 15 -46 4 0 13 -20 19 -45 9 -38 22
-53 34 -43 2 3 57 -43 109 -93 35 -33 37 -39 28 -63 -15 -40 -12 -66 6 -66 13
0 15 7 11 35 -5 32 4 47 17 26 3 -5 15 -11 25 -14 20 -5 54 33 54 60 0 12 10
16 70 28 13 2 17 -4 17 -26 0 -16 -4 -29 -10 -29 -5 0 -18 -17 -29 -38 -17
-34 -23 -38 -50 -34 -25 3 -30 0 -33 -19 -2 -20 -8 -23 -30 -21 -24 2 -28 -1
-28 -23 0 -26 -3 -29 -52 -39 -34 -8 -36 -31 -6 -47 19 -10 24 -9 36 10 14 21
52 30 52 11 0 -5 7 -7 15 -4 10 4 20 -5 30 -30 27 -64 64 -67 79 -5 5 23 1 28
-24 39 -16 7 -37 10 -46 6 -11 -4 -14 -1 -12 12 2 9 12 17 23 17 11 1 31 8 43
17 13 9 32 14 43 11 19 -5 27 -23 10 -23 -11 0 -9 -59 2 -77 5 -7 21 -13 38
-13 16 0 38 -9 50 -21 16 -16 29 -20 55 -16 29 5 34 3 34 -14 0 -11 -7 -19
-16 -19 -14 0 -16 -8 -11 -47 3 -26 10 -49 16 -51 17 -6 13 -32 -4 -32 -8 0
-15 4 -15 8 0 14 -52 34 -62 24 -6 -6 -6 -27 -1 -53 7 -34 13 -44 28 -44 28 0
45 -19 45 -48 0 -19 -8 -28 -30 -36 -23 -7 -30 -16 -30 -35 0 -16 -6 -26 -14
-26 -8 0 -20 -13 -28 -30 -7 -16 -16 -30 -20 -30 -14 0 -9 -77 5 -89 8 -6 17
-8 20 -4 4 3 7 1 7 -5 0 -7 6 -12 14 -12 7 0 19 -13 26 -30 7 -16 16 -30 21
-30 5 0 9 -15 9 -32 0 -18 9 -60 20 -92 33 -98 25 -168 -30 -268 -8 -13 -5
-23 10 -38 11 -11 20 -24 20 -30 0 -5 5 -10 10 -10 6 0 10 -11 10 -24 0 -14 5
-28 10 -31 6 -3 10 -15 10 -26 0 -23 39 -71 52 -63 6 4 27 -2 49 -11 38 -18
40 -18 54 1 8 10 15 29 15 41 0 12 4 25 10 28 6 3 10 20 10 36 0 16 8 39 18
49 16 17 17 29 11 74 -9 67 10 183 36 222 28 42 65 115 65 129 0 7 14 26 30
43 17 18 30 36 30 42 0 5 5 10 10 10 14 0 13 73 -1 87 -12 12 -3 53 12 53 7 0
8 -12 4 -31 -7 -29 -5 -31 13 -27 11 3 29 0 40 -8 25 -17 33 -8 20 22 -12 26
4 95 29 125 7 8 13 24 13 34 0 10 3 15 7 12 9 -9 43 22 43 40 0 7 -5 13 -11
13 -19 0 -79 74 -73 90 7 17 11 42 13 83 2 58 51 19 51 -42 0 -16 6 -34 13
-38 6 -4 17 -17 23 -28 7 -13 24 -21 48 -23 47 -4 53 -21 27 -74 -21 -43 -21
-43 -1 -46 11 -2 30 4 42 12 25 17 68 22 68 7 0 -5 -11 -18 -25 -29 -31 -25
-31 -32 0 -32 13 0 34 -10 45 -22 l21 -23 -25 -10 c-22 -9 -23 -12 -11 -35 15
-28 11 -40 -13 -40 -25 0 -82 -64 -82 -92 0 -15 6 -25 15 -25 8 0 12 4 9 9 -3
4 9 8 25 8 21 0 31 -5 31 -15 0 -8 -4 -15 -10 -15 -5 0 -10 -4 -10 -10 0 -5
-13 -22 -29 -37 -38 -38 -46 -65 -24 -89 18 -19 76 -44 104 -44 14 0 83 -59
108 -92 16 -22 0 -48 -30 -48 -13 0 -20 -10 -25 -35 -5 -30 -10 -35 -35 -35
-16 0 -29 5 -29 10 0 6 -18 10 -40 10 -22 0 -40 5 -40 10 0 6 -18 10 -40 10
-22 0 -40 -4 -40 -10 0 -5 -5 -10 -11 -10 -6 0 -28 -18 -49 -40 -20 -21 -40
-36 -44 -33 -3 4 -6 1 -6 -5 0 -7 -9 -12 -20 -12 -11 0 -20 -5 -20 -12 0 -6
-3 -9 -6 -5 -8 8 -44 -30 -44 -48 0 -8 -4 -15 -10 -15 -5 0 -10 -7 -10 -15 0
-8 -4 -15 -10 -15 -5 0 -10 -10 -10 -23 0 -13 -5 -28 -11 -34 -22 -22 26 -84
91 -118 16 -8 30 -22 30 -30 0 -7 4 -16 8 -19 5 -3 9 24 9 59 -1 36 3 68 7 72
3 4 30 10 59 14 59 8 127 30 127 41 0 5 7 8 17 8 19 0 89 70 98 99 3 10 18 22
33 26 27 6 87 66 97 96 5 14 37 27 80 33 23 3 34 -32 35 -107 0 -109 9 -123
106 -175 70 -36 135 -42 172 -16 15 10 32 14 48 10 30 -8 74 -49 74 -69 0 -7
9 -31 19 -53 22 -44 20 -54 -9 -47 -35 9 -25 -41 16 -87 l36 -40 -26 -10 c-14
-5 -26 -11 -26 -14 0 -2 16 -28 35 -57 39 -60 40 -72 4 -77 -35 -5 -49 -21
-49 -53 0 -15 -5 -31 -10 -34 -6 -3 -10 -12 -10 -18 0 -7 4 -6 10 3 7 11 10 0
11 -37 1 -29 2 -58 3 -65 1 -6 -14 -16 -31 -20 -28 -7 -33 -13 -33 -37 0 -32
-27 -45 -69 -34 -22 6 -23 5 -8 -23 15 -31 16 -81 1 -76 -5 2 -24 10 -43 18
-44 18 -54 10 -37 -31 11 -26 12 -36 3 -43 -18 -15 -57 4 -57 27 0 11 -5 23
-10 26 -16 10 -89 -36 -83 -51 8 -21 -16 -44 -44 -44 -24 0 -25 2 -18 37 4 21
11 41 16 44 6 3 6 17 -1 34 -9 24 -7 37 12 77 12 26 26 48 30 48 13 0 9 27 -5
38 -7 6 -26 12 -42 14 -28 3 -30 1 -27 -28 2 -22 -2 -33 -13 -38 -21 -8 -38 2
-29 16 5 8 -3 9 -25 5 l-33 -7 4 40 c3 36 1 40 -19 40 -27 0 -30 -20 -8 -54
14 -21 14 -24 0 -30 -25 -9 -29 -7 -30 13 0 31 -68 71 -120 71 -39 0 -45 -3
-51 -25 -7 -27 -19 -33 -27 -12 -4 9 -8 8 -16 -3 -10 -13 -12 -13 -21 0 -13
21 -12 38 3 43 6 2 -5 7 -27 11 -36 7 -38 9 -31 34 13 48 9 115 -9 127 -9 7
-16 17 -16 24 0 6 -7 11 -15 11 -13 0 -15 -11 -9 -67 4 -38 11 -76 16 -86 7
-13 4 -19 -9 -24 -10 -3 -26 -13 -36 -21 -9 -8 -19 -13 -20 -11 -45 60 -47 61
-53 45 -10 -26 4 -63 26 -69 13 -3 20 -13 20 -30 0 -22 -8 -28 -67 -47 -53
-17 -68 -19 -74 -8 -5 7 -9 16 -9 21 0 14 -68 7 -81 -9 -7 -8 -21 -13 -31 -11
-10 3 -18 1 -18 -4 0 -15 -37 -10 -83 10 -59 26 -123 39 -140 30 -8 -5 -20
-22 -27 -38 -8 -20 -21 -32 -41 -36 -16 -4 -35 -15 -42 -26 -8 -10 -29 -24
-48 -31 -42 -14 -59 -31 -59 -56 0 -25 25 -74 33 -65 9 8 9 -130 1 -151 -3 -9
-15 -16 -25 -16 -26 0 -69 29 -69 46 0 10 -13 14 -41 14 -32 0 -40 -3 -37 -16
3 -17 18 -28 51 -38 11 -4 17 -16 17 -36 0 -17 6 -33 14 -36 17 -6 9 -44 -9
-44 -7 0 -15 7 -19 15 -11 30 -28 15 -25 -22 1 -21 1 -44 0 -51 -2 -20 -21 -3
-21 19 0 22 -12 24 -40 7 -15 -10 -23 -9 -39 6 -12 11 -21 25 -21 33 0 8 -5
11 -10 8 -6 -4 -9 6 -8 27 2 24 -1 33 -12 33 -19 0 -43 32 -35 45 4 6 1 9 -6
8 -7 -2 -14 6 -16 17 -3 11 -7 27 -10 35 -3 8 -5 19 -4 24 2 9 -11 46 -35 103
-8 17 -14 38 -14 47 0 9 -7 19 -15 22 -8 4 -15 14 -15 24 0 12 -12 23 -37 31
-33 11 -38 10 -54 -10 l-18 -22 -16 25 c-11 16 -17 50 -19 98 -2 86 -20 129
-76 182 -47 45 -51 70 -12 84 22 8 28 15 27 38 -2 24 -7 30 -34 35 -42 9 -48
16 -34 39 10 14 9 19 -2 24 -8 3 -15 15 -15 27 0 19 -4 21 -35 16 -40 -7 -79
18 -89 57 -4 18 -18 29 -57 41 -48 16 -54 16 -87 1 -28 -14 -37 -15 -43 -4 -9
15 8 28 27 21 10 -4 11 0 1 21 -20 44 -87 48 -87 7 0 -19 -5 -20 -45 -14 -42
5 -45 4 -56 -23 -6 -16 -8 -46 -5 -67 5 -32 2 -41 -19 -61 -43 -40 -80 -21
-104 55 -16 48 -24 76 -50 169 -5 15 -16 26 -30 28 -20 3 -22 8 -18 43 3 26 0
45 -9 54 -8 7 -14 29 -14 48 0 25 -6 37 -23 46 -35 19 -30 41 10 41 18 0 33 5
33 10 0 6 5 10 11 10 35 0 46 60 15 83 -17 12 -13 47 5 47 5 0 9 20 9 45 0 37
5 51 27 71 25 24 26 24 7 45 -21 23 -10 51 22 58 36 6 46 23 40 65 l-6 41 50
23 c44 20 49 26 40 42 -5 10 -19 22 -30 25 -26 8 -26 35 0 42 11 3 20 10 20
15 0 12 20 32 45 46 12 6 21 22 23 39 1 15 7 40 12 54 8 19 7 32 -3 52 -9 18
-13 44 -9 72 3 31 1 45 -7 45 -17 0 -9 32 12 51 13 12 17 32 17 81 0 50 4 69
20 86 16 17 20 35 20 99 0 58 3 74 11 63 8 -11 9 -7 3 15 -5 17 -8 54 -7 83
l2 52 -52 0 c-29 0 -128 -7 -222 -16 -93 -9 -203 -15 -243 -14 -40 1 -79 -3
-86 -9 -10 -8 -23 -7 -47 2 -19 7 -45 12 -59 11 -14 -2 -108 -4 -210 -5 -137
-1 -191 -5 -207 -15 -28 -18 -34 -18 -27 0 8 22 -14 56 -37 56 -26 0 -49 23
-49 49 0 12 -4 21 -10 21 -5 0 -10 5 -10 11 0 6 -13 29 -28 52 -16 23 -34 58
-42 77 -7 19 -23 60 -35 90 -13 30 -38 93 -56 140 -18 47 -36 87 -41 88 -4 2
-8 15 -8 28 0 13 -4 24 -10 24 -5 0 -10 6 -10 13 0 7 -8 22 -19 33 -10 11 -24
31 -31 44 -39 72 -111 121 -179 119 -34 0 -48 -7 -117 -54 -64 -43 -184 -190
-184 -225 0 -5 -4 -10 -10 -10 -5 0 -10 -5 -10 -11 0 -7 -8 -19 -17 -28 -10
-9 -19 -22 -21 -30 -2 -8 -12 -27 -23 -42 -10 -15 -19 -31 -19 -35 0 -10 -93
-148 -102 -152 -5 -2 -8 -10 -8 -17 0 -8 -10 -17 -22 -21 -13 -3 -36 -16 -52
-27 -24 -17 -33 -19 -60 -9 -43 16 -61 15 -76 -3 -16 -20 -50 -19 -79 2 -17
11 -29 13 -40 7 -19 -12 -330 -9 -438 4 -40 4 -73 4 -73 0 0 -17 -64 -7 -99
15 -29 17 -53 23 -121 25 -98 3 -182 3 -261 -1 -33 -1 -67 4 -82 12 -15 8 -33
11 -44 6 -32 -14 -55 -16 -68 -5 -6 5 -53 9 -103 7 -51 -1 -92 0 -92 3 0 17
-79 28 -188 27 -96 -1 -125 2 -132 13 -7 12 -15 12 -52 0 -24 -7 -50 -20 -60
-27 -13 -12 -20 -12 -40 -1 -12 7 -25 15 -28 18 -3 3 -21 17 -40 30 -19 13
-48 37 -65 52 -16 15 -33 28 -37 28 -5 0 -19 10 -34 23 -37 32 -101 67 -124
67 -11 0 -20 5 -20 10 0 6 -29 10 -68 10 -61 0 -69 -2 -87 -27 -11 -14 -25
-31 -30 -37 -36 -38 -35 18 -35 -3646 l0 -3580 1053 1 c578 0 1046 3 1040 6
-14 5 -18 33 -5 33 5 0 9 18 8 40 -1 45 -22 55 -44 19 -11 -17 -19 -19 -60
-13 -59 8 -81 19 -108 51 -23 27 -44 24 -44 -8 0 -19 -19 -28 -21 -9 -1 6 -3
15 -4 20 -1 6 -3 21 -4 35 -1 17 -7 25 -20 25 -21 0 -33 22 -25 45 7 17 -3 15
-63 -16 -41 -21 -63 -24 -63 -9 0 6 -10 10 -22 11 -13 0 -32 4 -42 8 -18 7
-16 11 18 49 28 31 37 48 34 69 -4 32 -28 41 -51 18 -9 -8 -23 -15 -32 -15 -9
0 -13 -4 -10 -10 3 -5 2 -10 -4 -10 -18 0 -21 18 -6 34 23 23 47 84 35 91 -5
3 -25 3 -45 -1 -28 -5 -35 -3 -35 9 0 9 5 19 10 22 6 4 8 11 4 16 -3 5 5 19
19 29 35 28 42 66 20 109 -10 20 -21 38 -24 41 -4 3 -12 24 -18 48 -7 23 -16
42 -21 42 -6 0 -10 15 -10 34 l0 34 -40 -10 c-52 -13 -63 -2 -27 26 21 17 27
30 25 54 -2 28 -6 32 -30 32 -15 0 -30 -5 -33 -10 -4 -6 -11 -8 -16 -5 -5 4
-9 -4 -10 -17 0 -13 -3 -18 -5 -11 -3 6 -1 29 5 49 8 29 7 40 -2 46 -21 13
-35 9 -70 -22 -35 -31 -61 -38 -72 -20 -3 6 1 17 10 26 18 18 13 30 -6 18 -20
-12 -102 -4 -120 12 -8 8 -25 14 -37 14 -12 0 -22 5 -22 11 0 8 -15 9 -45 4
-46 -6 -100 8 -109 30 -5 13 77 6 85 -7 4 -6 37 -11 75 -13 38 -2 85 -6 105
-10 23 -4 39 -3 43 4 4 6 18 11 31 11 36 0 55 10 55 31 0 10 4 19 8 19 5 0 9
7 9 15 0 8 -3 15 -6 15 -4 0 -8 12 -9 27 -1 14 1 24 4 20 9 -9 34 18 34 37 0
8 -5 18 -10 21 -6 4 -8 11 -5 16 4 5 -1 12 -11 16 -10 4 -20 0 -26 -10 -5 -10
-16 -17 -23 -17 -17 0 -20 31 -4 47 18 18 23 120 8 165 -10 32 -11 42 -1 46
16 5 16 42 -1 42 -7 0 -20 13 -30 29 -15 25 -15 30 -2 41 17 14 20 56 4 65 -7
5 -5 15 5 31 20 30 20 78 1 94 -8 7 -15 19 -15 26 0 8 -11 24 -25 36 -36 31
-31 38 18 32 58 -8 70 15 30 56 -70 72 -76 79 -70 94 6 14 26 21 51 17 4 -1
13 2 20 7 6 6 26 13 44 17 17 3 32 10 32 14 0 4 9 18 20 31 11 13 20 36 20 52
0 37 40 78 76 78 24 0 26 -3 21 -29 l-6 -30 52 6 c29 3 54 10 55 15 2 4 9 8
15 8 6 0 19 8 30 17 20 18 20 17 13 -16 -8 -44 12 -101 36 -101 10 0 18 -7 18
-15 0 -8 7 -15 15 -15 8 0 15 -4 15 -9 0 -13 85 -101 97 -101 6 0 16 7 23 15
7 8 16 15 21 15 17 0 9 -25 -16 -49 -14 -13 -25 -29 -25 -37 0 -16 26 -19 35
-4 8 13 52 13 61 -1 3 -6 17 -8 30 -5 40 10 64 -9 57 -45 -7 -39 11 -74 54
-100 18 -11 36 -32 39 -45 7 -25 29 -32 37 -11 3 6 6 1 6 -13 1 -14 4 -20 9
-14 4 6 27 11 52 10 l45 -1 -3 -39 c-4 -36 -2 -38 20 -33 36 9 67 -2 70 -27 2
-17 10 -21 38 -22 54 -1 58 -3 65 -24 5 -15 12 -19 29 -14 19 5 25 0 34 -25 9
-26 16 -31 45 -31 23 0 41 -8 57 -25 26 -28 40 -32 40 -12 0 7 12 14 28 15 21
1 32 -6 50 -33 15 -23 30 -35 45 -35 13 0 33 -11 46 -24 12 -12 41 -29 64 -36
23 -8 47 -17 52 -21 10 -7 21 12 39 64 8 24 30 17 34 -11 2 -11 10 -26 18 -32
11 -10 18 -8 32 10 25 31 46 19 30 -16 -9 -19 -18 -24 -34 -21 -17 3 -23 -2
-27 -19 -4 -20 -2 -22 16 -13 10 6 30 9 43 6 19 -3 26 1 30 19 3 13 12 28 20
35 8 6 14 19 14 28 0 19 39 72 40 54 0 -7 6 -13 14 -13 10 0 17 -17 21 -55 8
-59 16 -72 33 -52 7 8 7 29 1 62 -16 83 -14 114 7 130 27 20 47 19 40 -2 -3
-10 3 -42 13 -71 10 -29 14 -55 9 -58 -5 -3 -6 -14 -3 -24 3 -11 0 -20 -10
-24 -9 -3 -15 -18 -15 -35 0 -21 -7 -35 -25 -47 -24 -16 -24 -18 -19 -108 4
-50 10 -95 15 -100 5 -5 -5 -22 -22 -39 l-31 -29 16 -51 c15 -45 15 -52 1 -59
-8 -5 -15 -13 -15 -19 0 -5 -9 -23 -21 -38 -20 -27 -20 -30 -4 -62 10 -19 13
-35 8 -36 -6 -2 -8 -34 -5 -78 3 -54 1 -79 -9 -91 -7 -9 -18 -26 -24 -38 -8
-17 -18 -20 -47 -18 -30 3 -40 -1 -53 -22 -9 -14 -16 -38 -15 -53 3 -44 1 -53
-13 -53 -7 0 -31 -17 -52 -37 l-40 -38 -3 30 c-5 39 -18 46 -58 29 -31 -13
-34 -13 -54 14 l-22 27 7 -37 c5 -26 4 -38 -4 -38 -6 0 -11 7 -11 16 0 11 -8
14 -32 12 -33 -3 -33 -4 -48 -83 l-16 -80 -40 -1 c-23 0 -49 -4 -57 -7 -21 -8
-32 10 -28 45 1 18 -4 30 -17 37 -29 15 -62 -30 -55 -75 5 -30 3 -34 -16 -34
-11 0 -21 -6 -21 -13 0 -7 -13 -26 -29 -41 -36 -35 -65 -28 -77 17 -15 52 -74
45 -74 -9 0 -12 -5 -26 -12 -30 -7 -5 -3 -11 13 -17 22 -9 19 -11 -29 -18 -29
-4 -56 -10 -59 -13 -4 -3 2118 -6 4715 -6 3770 0 4722 3 4723 13 1 6 1 18 0
25 -1 8 2 19 7 25 12 15 28 135 31 240 1 11 9 17 25 17 13 0 26 7 30 15 3 8
17 15 31 15 18 0 28 7 35 25 14 36 36 31 64 -14 34 -53 39 -55 70 -26 31 28
31 59 1 61 -11 1 -28 2 -38 3 -27 2 -39 44 -22 83 11 27 11 36 1 51 -7 9 -20
17 -28 17 -8 0 -21 11 -28 25 -7 14 -22 25 -32 25 -14 0 -18 8 -18 33 0 33
-31 83 -44 70 -3 -3 -6 8 -6 25 0 17 -5 34 -11 37 -19 13 -33 60 -33 119 -1
55 -3 60 -26 66 -24 6 -25 9 -26 80 0 78 -18 127 -56 161 -29 26 -24 83 9 107
23 17 25 22 14 36 -7 9 -19 16 -26 16 -13 0 -55 33 -55 44 0 3 20 6 43 6 24 0
47 3 50 6 8 8 -12 47 -29 57 -22 13 -16 31 16 50 35 21 37 30 10 64 -11 14
-17 30 -14 35 4 6 0 14 -7 19 -12 8 -12 11 1 19 8 5 11 10 6 10 -6 0 -2 6 8
13 22 16 13 57 -12 57 -28 0 34 28 71 32 25 3 35 11 46 35 8 19 23 33 35 35
29 4 34 38 6 38 -11 0 -23 -7 -26 -15 -4 -10 -13 -13 -26 -9 -12 3 -27 -1 -39
-12 -26 -24 -33 -13 -36 58 -2 80 -10 108 -28 108 -8 0 -15 5 -15 10 0 14 12
12 38 -6 12 -8 20 -19 17 -24 -3 -5 7 -7 22 -6 22 2 29 9 31 30 2 17 -1 26
-10 26 -20 0 -37 20 -31 36 3 8 12 14 20 14 8 0 22 18 30 39 10 26 23 41 39
45 30 8 31 30 2 50 -17 12 -20 18 -10 28 9 9 15 9 24 0 15 -15 48 3 48 27 0
10 -11 27 -25 37 -14 10 -25 24 -25 31 0 16 2 16 34 3 32 -12 56 -3 56 19 0
21 -70 86 -88 83 -7 -2 -15 4 -18 13 -3 8 -12 15 -19 15 -19 0 -29 20 -17 32
8 8 23 4 51 -15 49 -32 81 -35 88 -7 3 13 14 20 29 20 22 0 82 45 73 55 -8 8
-113 8 -142 0 -37 -10 -87 11 -87 37 0 33 25 48 79 48 40 0 54 4 63 20 8 12
24 20 39 20 42 0 72 30 64 63 -6 22 -13 27 -37 27 -17 0 -27 4 -23 10 4 6 -10
10 -34 10 -23 0 -41 5 -41 10 0 6 -9 10 -19 10 -38 0 -32 20 6 21 30 0 34 2
18 9 -15 7 -9 9 25 9 37 1 53 -5 80 -29 44 -37 110 -43 110 -10 0 11 -5 20
-12 20 -6 0 -9 3 -5 6 3 3 -5 18 -18 32 -29 31 -20 47 18 33 21 -8 34 -6 69
15 36 21 39 25 18 23 -54 -3 -78 2 -84 17 -8 22 51 44 119 44 30 0 55 5 55 10
0 14 27 12 33 -2 4 -10 6 -10 6 0 1 6 7 12 14 12 9 0 12 11 9 33 -4 33 -5 34
-45 32 -23 -1 -51 -5 -63 -8 -24 -8 -46 8 -61 44 -9 22 -8 29 7 42 10 8 21 13
24 10 9 -10 7 13 -4 42 -8 22 -7 27 14 37 44 19 95 -4 100 -46 3 -28 23 -49
38 -40 4 3 8 -7 9 -23 0 -25 1 -26 9 -8 8 19 9 19 9 -2 1 -12 -5 -23 -11 -26
-9 -3 -6 -12 10 -29 27 -29 28 -46 5 -64 -16 -12 -16 -13 -1 -14 9 0 18 -4 20
-9 2 -6 27 -11 56 -12 28 -2 52 -7 52 -11 0 -5 5 -6 10 -3 15 9 12 -18 -4 -40
-27 -38 -176 -33 -176 5 0 14 -77 12 -86 -2 -9 -14 23 -38 51 -38 12 0 30 -9
40 -20 16 -18 20 -19 35 -5 14 13 20 12 54 -6 35 -18 40 -19 62 -5 13 9 37 16
54 16 24 0 33 6 40 26 6 14 8 30 5 34 -3 5 11 12 32 16 46 8 63 20 63 45 0 23
-24 25 -70 5 -31 -13 -70 -11 -70 3 0 3 9 12 20 19 42 26 8 96 -41 87 -16 -3
-19 2 -19 36 0 34 -4 41 -27 50 -14 5 -31 16 -37 23 -6 8 -29 20 -51 27 l-40
14 48 5 48 5 -20 39 c-13 24 -18 49 -15 66 5 23 0 31 -28 50 -50 35 -115 105
-110 119 2 7 8 8 15 3 7 -5 28 -15 47 -22 19 -7 44 -21 55 -31 19 -17 135 -38
135 -25 0 15 -56 58 -83 63 -15 3 -32 14 -38 24 -9 17 -6 19 33 19 24 0 63 -9
87 -20 l44 -20 23 21 c20 18 26 20 39 9 8 -7 13 -20 10 -30 -6 -19 31 -40 70
-40 21 0 25 -5 25 -31 0 -30 -19 -59 -39 -59 -21 0 -49 -32 -44 -51 4 -15 -3
-23 -32 -34 -43 -18 -42 -39 3 -43 35 -4 72 12 72 31 0 22 88 51 91 30 7 -39
4 -53 -10 -58 -9 -3 -23 -22 -33 -41 l-16 -36 53 -54 c45 -45 60 -54 90 -54
37 0 50 -22 20 -34 -12 -4 -13 -10 -6 -24 9 -18 40 -28 144 -49 24 -5 27 -9
27 -49 0 -24 5 -44 10 -44 13 0 13 -57 -1 -62 -19 -6 3 -38 27 -38 21 0 24 -5
24 -35 0 -39 27 -89 59 -112 12 -8 26 -25 31 -38 6 -15 20 -25 44 -29 30 -6
39 -2 68 26 27 26 33 29 36 15 2 -11 13 -17 33 -17 18 0 28 -4 24 -10 -3 -6
-1 -10 5 -10 6 0 5 -13 -5 -36 -8 -20 -15 -58 -15 -84 0 -26 -7 -67 -15 -90
-8 -23 -15 -47 -15 -51 0 -11 54 -3 81 11 10 6 31 10 48 10 17 0 40 8 51 17
11 10 30 19 41 19 18 1 20 -4 18 -45 -3 -51 -3 -51 86 -36 33 5 65 47 65 84 0
12 5 21 10 21 6 0 10 11 10 25 0 14 -4 25 -10 25 -5 0 -10 6 -10 14 0 27 -25
37 -49 19 -23 -16 -23 -16 -18 23 5 39 20 99 39 163 6 19 19 44 29 55 13 13
19 35 19 63 0 41 -1 43 -30 43 -32 0 -37 13 -32 84 2 27 1 28 -33 24 -31 -4
-35 -1 -35 19 0 15 9 27 25 35 14 6 25 15 25 20 0 4 6 8 14 8 16 0 41 63 33
84 -3 7 -19 16 -36 19 -34 7 -81 48 -81 69 0 9 3 9 10 -2 8 -12 10 -9 10 13 0
15 5 27 10 27 6 0 10 7 10 15 0 8 4 15 10 15 14 0 32 75 24 104 -6 24 -46 46
-85 46 -21 0 -56 28 -118 93 -26 26 -52 47 -59 47 -6 0 -12 5 -12 10 0 6 -7
10 -15 10 -11 0 -15 11 -15 40 0 22 5 40 11 40 5 0 8 4 5 9 -3 5 -15 7 -26 4
-27 -7 -27 23 1 37 28 15 61 21 54 9 -4 -5 3 -9 14 -9 12 0 38 18 60 40 21 22
43 40 49 40 5 0 15 7 22 15 15 18 2 51 -33 92 -15 17 -17 25 -8 42 12 21 0 61
-17 61 -4 0 -13 14 -21 30 -10 24 -10 34 -1 45 10 12 9 15 -6 16 -18 0 -18 1
1 9 16 7 12 9 -18 9 -39 1 -84 30 -59 39 20 6 14 33 -12 53 -14 11 -27 27 -30
37 -6 17 -49 42 -73 42 -7 0 -13 4 -13 8 0 5 -16 14 -35 22 -19 8 -35 17 -35
22 0 4 -9 8 -19 8 -11 0 -23 5 -26 10 -3 6 -23 10 -44 10 -22 0 -44 6 -51 15
-7 8 -16 12 -21 9 -5 -3 -4 7 1 21 6 15 10 40 10 56 0 27 -3 29 -39 29 -33 0
-40 4 -45 24 -3 13 -15 26 -26 29 -24 6 -26 29 -5 47 19 16 19 36 0 44 -8 3
-15 2 -15 -2 0 -10 -57 -41 -63 -35 -3 3 -3 20 0 38 4 27 2 34 -16 40 -15 4
-21 15 -21 35 0 16 4 32 10 35 18 11 12 47 -7 43 -27 -5 -57 47 -42 73 16 31
7 54 -21 54 -16 0 -26 6 -28 18 -7 33 31 138 56 158 21 16 23 24 18 54 -5 26
-3 40 9 51 20 20 20 54 -1 54 -13 0 -15 7 -11 35 6 34 -11 65 -34 65 -17 0 -9
50 11 67 11 10 20 22 20 28 0 17 24 65 33 65 4 0 7 9 7 19 0 11 4 23 10 26 6
3 10 31 10 61 0 34 4 53 10 49 6 -3 10 0 10 8 0 8 16 32 35 53 34 37 49 94 25
94 -7 0 -7 6 0 20 8 15 17 18 39 14 17 -4 33 -1 42 9 9 8 29 18 45 21 33 7
104 70 104 92 0 8 7 14 15 14 8 0 15 5 15 10 0 6 12 10 26 10 29 0 45 13 67
57 14 27 23 32 64 36 27 3 64 9 83 14 34 9 35 10 48 83 7 41 11 87 9 101 -3
26 13 49 33 49 7 0 27 16 46 35 19 20 34 32 34 29 0 -4 8 3 19 14 10 12 27 22
37 22 11 0 28 6 39 13 11 8 42 20 69 28 70 20 148 96 146 141 -3 47 -1 62 6
55 9 -9 34 19 34 37 0 8 5 18 10 21 6 4 8 11 5 16 -4 5 -1 9 5 9 6 0 8 5 5 10
-4 6 6 10 24 10 16 0 31 -6 34 -12 5 -15 46 29 47 49 0 19 17 24 32 10 26 -27
64 -41 111 -43 26 -1 50 2 52 7 8 12 35 -1 35 -18 0 -7 11 -25 25 -39 25 -25
63 -101 83 -164 20 -66 26 -125 23 -237 -3 -113 2 -134 36 -140 6 -1 29 -20
50 -43 81 -82 84 -59 53 325 -7 88 -35 231 -53 275 -3 8 -8 51 -11 95 -6 101
-18 178 -39 235 -25 68 -22 86 14 94 45 9 49 8 49 -9 0 -8 5 -15 10 -15 6 0
10 -9 10 -20 0 -16 7 -20 30 -20 36 0 45 -16 32 -62 -6 -23 -5 -42 4 -63 7
-16 13 -43 14 -58 0 -16 6 -43 14 -60 18 -40 26 -99 32 -261 4 -85 2 -132 -5
-139 -14 -14 -14 -54 -1 -62 6 -3 10 -17 10 -31 0 -13 5 -24 10 -24 6 0 10
-14 10 -30 0 -31 13 -60 42 -93 16 -19 16 -19 26 0 15 27 -16 219 -39 249 -5
6 -3 60 3 120 9 82 18 118 35 146 13 21 23 47 23 60 0 12 7 29 16 39 14 15 18
16 30 4 8 -7 14 -18 14 -23 0 -5 6 -14 13 -20 22 -18 54 12 62 58 4 22 10 40
14 40 4 0 18 -11 31 -25 26 -27 42 -33 34 -11 -3 8 -1 17 5 21 7 4 11 -5 11
-23 0 -43 23 -59 64 -44 46 17 48 16 41 -20 -5 -28 -2 -36 19 -52 21 -15 26
-27 26 -62 0 -24 5 -44 10 -44 6 0 10 -7 10 -16 0 -8 4 -12 10 -9 11 7 13 -4
11 -60 -2 -37 1 -41 31 -53 59 -24 78 -35 118 -70 22 -18 40 -41 40 -50 0 -9
9 -28 20 -42 29 -37 26 -56 -9 -55 -16 0 -35 6 -42 12 -38 30 -94 43 -192 43
l-100 0 6 35 c3 19 4 35 1 35 -15 0 -64 -67 -64 -88 0 -34 -21 -104 -36 -119
-7 -7 -28 -14 -46 -14 l-33 -2 35 -7 35 -7 -32 -2 c-28 -1 -33 -5 -33 -25 0
-15 11 -34 29 -48 16 -13 41 -42 55 -66 43 -68 137 -154 153 -139 12 13 -11
68 -38 89 -16 13 -29 29 -29 36 0 6 -4 12 -10 12 -5 0 -10 8 -10 18 0 14 -2
15 -10 2 -8 -13 -10 -12 -10 3 0 21 18 23 26 2 7 -17 54 -21 54 -4 0 5 25 -4
56 -20 53 -30 114 -41 114 -22 0 5 9 11 19 14 11 3 30 26 42 51 14 31 29 48
45 52 13 3 24 9 24 13 0 4 7 8 15 8 8 0 15 -4 15 -9 0 -4 4 -8 8 -8 16 0 9 30
-7 31 -13 0 -12 2 2 8 10 4 18 9 17 11 -3 9 12 40 19 40 13 0 31 -50 31 -86 0
-68 28 -96 128 -126 23 -7 42 -16 42 -20 0 -5 11 -8 25 -8 14 0 25 -4 25 -10
0 -5 6 -10 13 -10 26 0 66 -25 82 -52 16 -28 39 -34 108 -30 15 1 27 -3 27 -9
0 -5 4 -7 10 -4 6 3 10 -4 10 -18 0 -14 6 -30 14 -36 7 -6 16 -36 20 -67 4
-32 15 -67 26 -81 15 -19 17 -30 9 -49 -7 -19 -5 -29 6 -40 19 -20 19 -29 -2
-61 -13 -19 -17 -43 -15 -92 3 -55 0 -70 -18 -89 -11 -12 -25 -22 -30 -22 -6
0 -10 -21 -10 -46 0 -27 -4 -43 -10 -39 -6 4 -10 -6 -11 -22 -2 -40 -3 -43
-28 -95 -12 -27 -26 -48 -32 -48 -5 0 -8 -12 -7 -27 3 -24 -1 -28 -22 -29 -14
-1 -38 -7 -54 -13 -21 -9 -32 -9 -42 0 -9 7 -32 9 -64 5 -47 -6 -51 -5 -60 19
-5 14 -14 25 -20 25 -5 0 -10 6 -10 13 0 19 -37 51 -44 39 -4 -6 -21 -6 -47
-1 -62 14 -81 27 -74 50 4 13 2 19 -8 19 -9 0 -25 12 -36 28 -21 26 -21 27
-34 7 -12 -20 -21 -58 -33 -143 -5 -29 -15 -50 -34 -66 -16 -13 -30 -31 -31
-41 -6 -30 -28 -29 -34 2 -4 15 -11 36 -16 46 -5 10 -7 23 -3 30 4 7 -2 4 -13
-6 -24 -20 -53 -22 -53 -3 0 8 -7 16 -15 20 -30 11 -16 27 19 21 45 -9 55 9
22 42 -16 16 -26 37 -26 54 0 31 9 36 27 18 6 -6 17 -8 23 -4 9 6 8 10 -4 17
-18 10 -21 40 -6 67 6 13 3 30 -13 62 -17 34 -23 68 -27 149 -5 115 -20 145
-81 170 -16 7 -29 17 -29 22 0 5 -4 7 -8 4 -4 -2 -27 4 -50 14 -51 23 -227 45
-291 36 -41 -6 -130 -55 -139 -78 -2 -4 -10 -8 -17 -8 -22 0 -48 -52 -47 -95
0 -23 10 -58 21 -78 12 -21 21 -52 21 -69 0 -18 11 -45 25 -64 14 -18 25 -46
25 -63 0 -17 9 -47 20 -67 12 -20 20 -37 18 -38 -31 -14 -43 -27 -41 -50 1
-14 -1 -25 -5 -25 -33 5 -42 -3 -42 -35 0 -39 -28 -96 -47 -96 -7 0 -13 -4
-13 -9 0 -14 -87 -51 -119 -51 -17 0 -33 -4 -36 -10 -3 -5 -22 -10 -41 -10
-33 0 -39 -7 -34 -40 3 -26 32 -34 126 -35 75 -1 95 -5 120 -23 26 -19 55 -29
92 -31 7 -1 20 -17 29 -36 9 -19 20 -35 25 -35 4 0 8 -5 8 -11 0 -12 29 -38
42 -39 4 0 10 9 13 20 5 17 15 20 60 20 45 0 55 3 60 20 5 15 15 20 41 20 35
0 36 -1 31 -35 -7 -49 -25 -68 -59 -63 -21 4 -32 -1 -39 -14 -10 -18 -12 -19
-37 -2 -25 16 -26 16 -47 -10 -15 -19 -30 -26 -57 -26 -38 0 -92 -22 -81 -33
3 -4 -5 -7 -18 -7 -14 0 -31 -9 -39 -20 -14 -20 -57 -29 -45 -10 3 6 -3 10
-14 10 -34 0 -30 -24 12 -60 51 -45 46 -72 -15 -86 -51 -11 -64 -44 -17 -44
16 0 29 -5 29 -11 0 -25 70 -96 98 -102 20 -4 37 -18 52 -42 12 -19 25 -35 29
-35 15 0 51 32 46 41 -10 15 63 10 95 -6 34 -17 38 -11 13 17 -26 29 -4 42 40
23 19 -8 38 -19 42 -25 3 -5 18 -10 33 -11 27 0 27 0 5 -11 -29 -14 -30 -57
-4 -89 16 -20 21 -22 35 -10 9 8 15 20 12 26 -2 7 0 18 5 26 7 11 9 11 9 -4 0
-10 7 -20 15 -24 9 -3 23 -19 31 -36 15 -28 15 -31 -6 -59 l-21 -29 22 -39 22
-39 -21 -18 c-20 -16 -21 -21 -10 -56 8 -25 25 -48 50 -65 43 -31 47 -45 17
-66 -20 -14 -25 -13 -54 10 -19 14 -35 37 -39 54 -3 17 -9 30 -13 30 -10 0
-10 -51 0 -67 4 -6 10 -32 13 -57 6 -42 5 -46 -14 -46 -11 0 -24 5 -27 10 -3
6 -16 10 -28 10 -20 -1 -21 -2 -5 -14 10 -7 15 -16 11 -19 -3 -4 1 -7 10 -7 9
0 17 -3 17 -8 0 -4 18 -15 40 -25 28 -12 40 -23 40 -37 0 -11 5 -29 12 -39 17
-28 4 -49 -26 -44 -14 3 -26 9 -26 14 0 12 -41 11 -59 0 -11 -7 -11 -15 -2
-42 13 -38 8 -47 -15 -28 -14 11 -18 11 -30 -6 -8 -10 -17 -33 -20 -52 -7 -39
-22 -41 -62 -8 -17 14 -33 25 -36 25 -11 0 -6 -31 10 -55 8 -13 14 -36 12 -52
-3 -26 -6 -28 -45 -25 -24 1 -43 -2 -43 -8 0 -5 5 -10 10 -10 6 0 10 -5 10
-11 0 -6 10 -24 23 -39 12 -15 27 -36 34 -46 11 -18 12 -18 27 2 19 26 76 22
76 -6 0 -24 -20 -38 -48 -34 -19 3 -22 0 -17 -19 3 -12 -2 -31 -10 -42 -15
-19 -15 -19 -31 3 -17 24 -43 29 -46 10 0 -7 -2 -17 -2 -23 -1 -5 -5 -16 -10
-23 -4 -7 -2 -19 5 -28 14 -17 -4 -69 -21 -59 -7 4 -10 -6 -8 -29 1 -19 6 -32
10 -30 4 3 8 -28 8 -68 0 -51 -3 -68 -10 -58 -7 12 -10 12 -10 1 0 -7 -6 -11
-14 -8 -8 3 -20 -1 -26 -9 -17 -20 -43 -18 -60 5 -16 23 -30 18 -30 -9 0 -24
31 -90 42 -90 4 0 8 -20 8 -44 0 -25 4 -48 10 -51 6 -3 10 -35 10 -71 0 -45 3
-63 11 -58 7 4 10 -1 7 -12 -2 -13 -12 -19 -29 -19 -14 0 -33 -6 -42 -14 -21
-17 -22 -79 -3 -106 9 -13 12 -38 10 -70 -8 -99 -5 -147 11 -171 8 -13 21 -23
28 -21 8 1 13 -16 14 -53 l2 -55 -15 33 c-27 61 -38 34 -47 -109 -9 -160 -6
-196 24 -258 12 -25 25 -53 29 -61 10 -22 23 -99 22 -133 0 -16 -7 -39 -16
-51 -11 -17 -12 -33 -6 -62 8 -32 5 -48 -15 -91 -31 -64 -43 -72 -66 -45 -29
37 -61 22 -72 -33 -13 -67 -32 -106 -49 -102 -25 7 -55 -19 -63 -52 -5 -22
-10 -28 -26 -24 -32 9 -51 -15 -44 -57 6 -37 -3 -71 -29 -103 -11 -15 -19 -16
-34 -8 -17 9 -25 5 -51 -26 -17 -20 -31 -40 -31 -46 0 -5 -11 -22 -25 -39 -14
-16 -25 -36 -25 -44 0 -9 -4 -13 -9 -9 -11 6 -51 -41 -51 -60 0 -7 -6 -18 -14
-24 -8 -7 -20 -33 -26 -59 -27 -115 -23 -107 -55 -103 -63 8 -70 7 -67 -14 2
-10 11 -25 20 -32 15 -12 14 -13 -8 -12 -84 5 -105 -1 -123 -30 -13 -22 -22
-28 -39 -23 -14 3 -19 1 -14 -6 4 -6 -4 -23 -16 -37 -13 -15 -23 -34 -23 -43
0 -13 -12 -19 -45 -23 -25 -3 851 -7 1945 -7 1120 -1 1984 2 1976 7 -11 7 -11
9 0 14 11 4 10 6 -1 6 -9 1 -16 9 -16 19 -1 9 -4 29 -9 45 -5 21 -4 27 8 27
11 0 16 14 19 50 3 48 2 49 -22 43 -35 -8 -37 -10 -45 -40 -3 -15 -11 -30 -16
-34 -5 -3 -10 -24 -12 -47 -1 -27 -7 -42 -15 -42 -7 0 -10 -4 -7 -10 11 -18
-21 -11 -38 8 -13 14 -14 21 -5 30 6 6 8 15 4 19 -4 4 -11 2 -15 -5 -4 -7 -15
-10 -24 -7 -15 6 -39 -23 -36 -42 3 -21 -2 -33 -15 -33 -18 0 -22 19 -18 81 4
45 6 48 23 38 17 -9 27 -3 64 38 25 26 48 61 51 76 4 16 13 31 20 34 8 3 14
19 14 36 0 28 10 69 31 125 6 15 17 22 34 22 29 0 35 29 10 50 -12 10 -22 8
-55 -14 -27 -18 -48 -24 -63 -21 -15 4 -28 1 -36 -9 -8 -9 -20 -16 -27 -16
-24 0 -15 17 16 30 18 7 30 20 30 30 0 10 14 30 32 45 31 26 31 28 13 41 -10
8 -25 14 -33 14 -24 0 34 63 70 74 41 14 50 49 18 78 -16 15 -20 27 -15 48 8
35 -4 43 -49 35 -40 -8 -45 -18 -53 -102 -4 -40 -10 -63 -18 -63 -16 0 -25 46
-18 84 4 20 1 33 -10 40 -18 14 -47 80 -47 108 0 10 -4 17 -9 13 -6 -3 -11 14
-13 37 -2 28 -7 42 -15 41 -18 -4 -16 12 2 27 20 17 19 46 -3 62 -9 7 -28 34
-42 61 -13 26 -26 47 -28 47 -1 0 -12 -9 -24 -20 -28 -26 -70 -26 -86 0 -7 11
-21 20 -33 20 -19 0 -20 4 -14 68 4 37 14 86 22 109 13 42 6 83 -16 83 -10 0
-51 -48 -51 -60 0 -5 -7 -7 -15 -4 -8 4 -15 17 -15 30 0 13 -4 24 -10 24 -5 0
-10 10 -10 23 0 13 -4 27 -9 33 -5 5 -11 29 -13 53 -2 32 -11 54 -30 75 -16
17 -28 40 -29 51 -3 87 1 256 7 283 4 22 12 32 25 32 11 0 19 -4 19 -10 0 -5
4 -10 9 -10 11 0 33 54 29 71 -4 21 3 23 60 15 50 -6 55 -5 77 20 21 24 28 26
65 20 33 -5 49 -2 77 15 25 15 44 20 68 16 25 -4 41 0 58 13 18 14 34 18 59
14 31 -6 36 -3 47 24 12 28 15 29 41 19 22 -8 35 -8 53 2 20 10 32 11 60 2 26
-9 42 -9 56 -2 28 16 97 13 110 -3 9 -11 26 -13 66 -9 44 5 56 3 61 -10 3 -8
23 -27 45 -41 21 -15 39 -33 39 -42 0 -32 61 -123 83 -124 14 0 7 39 -13 73
-26 43 -32 112 -10 112 9 0 19 -16 25 -40 12 -49 47 -90 70 -82 8 4 14 12 13
18 -5 21 21 21 39 -1 15 -17 25 -19 60 -14 39 6 43 4 43 -14 0 -12 8 -23 19
-27 10 -3 22 -16 25 -29 6 -24 56 -43 78 -30 14 9 -34 39 -56 35 -13 -2 -17 2
-13 12 3 9 -1 18 -11 22 -15 6 -15 8 2 21 27 19 49 18 91 -6 20 -11 44 -20 54
-20 10 0 24 -7 31 -15 9 -10 9 -15 1 -15 -6 0 -11 5 -11 12 0 6 -2 9 -5 6 -13
-13 16 -56 45 -66 39 -14 60 -6 60 23 0 34 24 50 63 39 28 -9 32 -14 35 -48 2
-21 10 -45 18 -53 18 -18 18 -33 1 -33 -20 0 -55 40 -36 41 17 1 -29 17 -53
18 -12 1 -18 -6 -18 -20 0 -12 -8 -28 -17 -35 -17 -11 -16 -14 12 -36 16 -12
40 -25 54 -28 18 -4 33 -19 48 -48 13 -24 22 -47 20 -52 -1 -5 7 -15 17 -23
18 -13 18 -17 6 -47 -7 -17 -19 -38 -27 -46 -16 -15 -37 -19 -29 -5 3 5 -1 11
-9 15 -19 7 -27 -8 -20 -37 5 -20 0 -28 -27 -46 l-33 -23 38 6 c33 4 39 2 46
-17 5 -13 16 -29 25 -36 21 -18 11 -31 -23 -31 -43 0 -58 -24 -32 -51 26 -28
26 -39 1 -46 -11 -3 -20 -9 -20 -14 0 -5 -13 -9 -30 -9 -16 0 -30 -4 -30 -10
0 -5 -11 -10 -25 -10 -33 0 -33 -27 1 -60 26 -24 26 -24 5 -34 -15 -6 -32 -4
-61 9 -47 21 -58 15 -42 -20 7 -14 12 -53 12 -86 0 -44 4 -61 15 -65 10 -4 15
-20 15 -45 0 -21 5 -39 10 -39 6 0 10 -11 10 -25 0 -18 -5 -25 -18 -25 -27 0
-52 32 -52 67 0 16 -9 40 -20 53 -11 13 -20 31 -20 40 0 18 -28 36 -38 25 -3
-3 2 -20 12 -38 9 -17 14 -24 11 -14 -3 12 -1 16 6 11 8 -5 10 -31 5 -83 -5
-60 -3 -81 9 -96 22 -30 19 -65 -5 -65 -11 0 -20 -6 -20 -12 0 -9 -4 -8 -10 2
-8 12 -10 9 -10 -12 0 -16 5 -28 10 -28 6 0 10 -13 10 -30 0 -16 -4 -30 -10
-30 -5 0 -10 -8 -10 -18 0 -11 -9 -27 -20 -37 -11 -10 -20 -29 -20 -43 0 -13
-8 -38 -17 -54 -14 -23 -15 -32 -5 -35 6 -3 12 -18 12 -33 0 -36 11 -43 44
-29 35 16 44 5 23 -30 -19 -32 -23 -86 -6 -76 12 8 9 -206 -3 -216 -5 -3 -11
-26 -14 -52 l-7 -47 72 0 c64 0 71 2 71 20 0 11 5 20 10 20 6 0 10 13 10 29 0
17 -4 33 -10 36 -13 8 -13 55 0 75 7 11 10 11 10 2 0 -7 5 -10 10 -7 5 3 10 0
10 -9 0 -8 5 -16 11 -18 5 -2 12 -31 13 -65 2 -33 7 -66 10 -72 4 -6 31 -11
59 -11 l52 0 3 55 c2 42 -1 58 -15 72 -10 10 -17 26 -15 36 4 21 32 23 32 2 0
-17 50 -116 64 -126 5 -4 6 -14 3 -23 -6 -14 21 -16 268 -16 l275 0 0 2681 0
2681 -22 -6 c-13 -3 -26 -6 -30 -6 -14 0 -8 -37 7 -50 22 -19 18 -30 -15 -41
-25 -9 -29 -15 -24 -35 5 -21 3 -24 -22 -24 -53 0 -72 -39 -29 -58 15 -7 25
-20 25 -33 0 -18 -4 -20 -40 -16 l-40 4 0 -36 c0 -22 -3 -31 -8 -23 -7 9 -14
8 -32 -8 -13 -11 -27 -20 -32 -20 -4 0 -8 -7 -8 -15 0 -9 -9 -15 -25 -15 -14
0 -25 -4 -25 -10 0 -5 -6 -10 -14 -10 -21 0 -30 -39 -15 -66 14 -27 6 -42 -14
-25 -10 8 -22 8 -46 0 -37 -13 -39 -22 -8 -37 12 -6 16 -11 9 -11 -7 -1 -10
-6 -7 -11 9 -14 -52 -13 -78 2 -22 13 -81 18 -186 18 -30 0 -56 -1 -58 -4 -6
-6 20 -60 34 -69 17 -11 56 -77 49 -84 -3 -4 -17 -1 -31 5 -14 7 -43 12 -63
12 -28 0 -33 3 -22 10 8 5 10 10 4 10 -6 0 -23 -9 -37 -20 -31 -25 -62 -25
-107 -2 -63 32 -88 11 -65 -54 8 -22 14 -35 15 -31 0 5 7 1 16 -7 8 -9 13 -24
11 -34 -4 -16 -5 -16 -6 1 0 10 -5 16 -11 12 -5 -3 -19 4 -30 15 -18 18 -24
19 -37 8 -14 -11 -16 -10 -11 14 6 31 -13 54 -37 44 -22 -8 -18 -26 6 -26 19
0 21 -5 17 -43 -3 -23 -1 -52 3 -64 7 -20 6 -21 -20 -12 -16 6 -34 22 -40 36
-6 14 -14 23 -17 20 -8 -7 -78 13 -85 25 -4 6 -21 11 -38 12 -17 0 -31 6 -31
13 0 7 -7 10 -16 6 -12 -4 -14 -14 -9 -44 5 -31 4 -39 -8 -39 -8 0 -17 7 -21
15 -8 21 -38 19 -59 -5 -14 -16 -21 -18 -43 -9 -29 10 -54 6 -54 -10 0 -5 9
-13 20 -16 13 -4 20 -15 20 -31 0 -30 -3 -30 -36 1 -15 14 -31 25 -35 25 -5 0
-9 -11 -9 -25 0 -14 5 -25 10 -25 6 0 10 -7 10 -15 0 -9 9 -25 20 -37 13 -14
20 -36 20 -59 0 -32 -3 -38 -20 -36 -11 1 -20 5 -20 9 0 19 -19 6 -22 -14 -4
-30 -33 -34 -55 -9 -20 25 -43 27 -43 6 0 -8 -5 -15 -11 -15 -5 0 -7 -5 -4
-10 12 -19 -11 -10 -25 10 -8 11 -20 20 -27 20 -7 0 -13 5 -13 10 0 6 -9 10
-20 10 -11 0 -19 3 -19 8 1 4 1 24 0 45 -1 32 -6 40 -36 54 -30 15 -40 15 -71
4 -31 -11 -38 -11 -55 5 -18 16 -20 30 -19 94 3 98 2 100 -14 100 -23 0 -27
-15 -18 -57 12 -56 -2 -103 -33 -103 -35 0 -68 47 -60 85 4 16 9 54 12 82 4
49 7 53 31 54 15 1 32 0 37 -1 6 -2 17 -2 25 -2 8 1 44 4 80 6 l65 5 19 -39
c16 -33 66 -90 80 -90 10 0 27 61 21 79 -7 24 24 45 51 34 13 -5 15 -3 9 7 -6
10 -4 12 9 7 11 -4 28 1 43 13 35 27 87 26 107 -2 l16 -22 0 26 c0 18 7 29 20
33 11 3 20 10 20 14 0 5 13 14 29 21 16 6 31 20 34 30 4 15 12 18 43 15 45 -5
69 6 69 31 0 11 15 23 43 33 23 8 42 21 42 28 0 7 4 13 9 13 15 0 71 53 71 67
0 7 5 13 10 13 6 0 10 9 10 20 0 11 -6 20 -14 20 -12 0 -12 5 1 31 10 20 15
54 14 90 -1 31 3 60 9 64 13 8 13 65 0 65 -12 0 -13 87 -1 94 9 6 -2 82 -13
93 -19 20 -52 -85 -47 -149 1 -14 -5 -40 -13 -57 -9 -17 -17 -50 -17 -73 -1
-44 -30 -118 -57 -150 -8 -10 -28 -18 -43 -18 -22 0 -29 -5 -34 -30 -4 -17
-11 -30 -16 -30 -14 0 -22 28 -13 48 4 9 6 22 5 29 -1 6 3 15 10 18 6 5 -1 14
-20 26 -35 21 -39 36 -14 54 16 12 16 16 3 40 -13 23 -12 28 0 36 31 18 37 25
54 68 14 37 15 46 3 60 -18 21 -28 59 -16 67 14 8 11 166 -3 197 -7 15 -16 27
-20 27 -5 0 -8 5 -8 11 0 32 -109 90 -181 97 -27 2 -49 8 -49 13 0 5 -11 9
-24 9 -14 0 -28 5 -31 10 -3 6 -42 10 -86 10 -46 0 -79 -4 -79 -10 0 -5 -11
-10 -25 -10 -14 0 -25 -4 -25 -10 0 -5 -7 -10 -15 -10 -8 0 -15 -4 -15 -8 0
-5 -18 -17 -41 -27 -69 -32 -80 -66 -61 -195 14 -95 23 -123 44 -141 10 -9 18
-23 18 -31 0 -19 23 -68 33 -68 4 0 7 -7 7 -15 0 -10 -10 -15 -29 -15 -29 0
-61 -22 -61 -41 0 -5 -18 -28 -40 -51 -22 -24 -40 -48 -40 -54 0 -15 -45 -34
-80 -34 -35 0 -60 -9 -60 -22 0 -18 29 -38 54 -38 14 0 26 -5 26 -11 0 -7 11
-9 28 -6 16 3 43 -2 67 -13 22 -11 57 -26 78 -34 32 -13 37 -19 37 -46 0 -17
6 -38 14 -46 16 -16 76 -19 76 -4 0 6 14 10 30 10 17 0 30 -4 30 -10 0 -5 9
-10 20 -10 15 0 20 -7 20 -25 0 -20 -7 -26 -42 -36 -24 -7 -85 -13 -137 -15
-81 -2 -96 0 -114 17 -11 10 -28 19 -37 19 -21 0 -70 23 -70 33 0 4 -9 7 -19
7 -11 0 -39 21 -63 46 -76 82 -89 94 -98 94 -4 0 -26 17 -48 37 -21 21 -55 51
-75 66 -21 15 -37 34 -37 42 0 8 -4 15 -10 15 -5 0 -10 9 -10 20 0 11 -4 20
-10 20 -6 0 -10 27 -10 61 0 37 4 58 10 54 6 -4 10 5 10 19 0 14 -4 26 -10 26
-5 0 -10 18 -10 40 0 27 -7 48 -20 62 -13 14 -18 29 -14 43 3 13 -3 40 -15 63
-13 25 -21 60 -21 90 0 27 -9 74 -20 106 -10 31 -24 83 -31 116 -6 33 -15 60
-19 60 -4 0 -15 15 -24 33 -8 17 -16 26 -16 20 0 -16 -80 -18 -80 -3 0 22 -47
10 -58 -15 -13 -28 -43 -33 -63 -9 -10 12 -10 20 -1 35 18 28 15 57 -7 69 -25
13 -61 13 -61 0 0 -5 -9 -10 -20 -10 -16 0 -20 7 -20 36 0 19 -5 45 -11 56 -9
17 -8 23 5 30 24 13 19 28 -9 28 -18 0 -25 5 -25 20 0 11 -7 20 -15 20 -12 0
-39 33 -40 51 0 9 -28 34 -60 54 -16 11 -34 25 -38 32 -12 19 -40 16 -33 -3 5
-12 2 -15 -10 -10 -8 3 -18 6 -21 6 -2 0 5 15 17 34 14 24 19 43 14 61 -6 26
-48 55 -79 55 -25 0 -44 25 -38 48 5 19 -18 36 -43 31 -28 -5 -34 4 -34 47 0
25 -4 43 -9 40 -4 -3 -16 1 -27 8 -15 12 -16 16 -5 30 7 9 18 13 25 9 6 -3 8
-3 4 1 -4 5 -2 13 3 20 5 6 16 20 23 30 12 18 15 18 46 2 44 -22 57 -20 75 8
20 30 53 43 133 51 55 5 66 4 80 -13 9 -10 31 -26 47 -35 17 -9 56 -41 88 -71
55 -51 100 -72 130 -60 7 2 26 27 42 54 16 28 36 52 45 55 9 3 35 22 58 43 45
41 114 82 138 82 8 0 14 5 14 10 0 6 10 10 23 10 29 1 50 18 67 57 8 17 23 34
33 37 10 2 21 14 24 25 3 12 8 21 12 21 4 0 13 15 20 34 13 32 15 33 85 40 39
3 90 9 113 12 33 5 49 1 72 -15 16 -12 34 -21 39 -21 12 0 22 -24 22 -51 0
-22 40 -151 49 -159 3 -3 8 -18 9 -35 2 -16 8 -34 12 -39 5 -5 5 -16 0 -25 -5
-9 -11 -57 -14 -106 -2 -50 -8 -104 -11 -121 -6 -28 -4 -33 22 -44 33 -15 53
-50 53 -94 1 -28 19 -66 33 -66 3 0 15 20 27 45 12 25 27 44 34 42 14 -5 12
-100 -3 -105 -15 -5 -14 -18 5 -58 10 -20 14 -47 11 -66 -6 -43 8 -68 38 -68
22 0 24 -2 13 -19 -9 -15 -8 -26 5 -52 9 -19 17 -30 17 -26 0 5 8 1 17 -8 16
-16 18 -16 35 5 22 27 23 49 4 56 -20 8 -28 32 -16 53 6 12 6 30 -1 52 -8 28
-6 43 12 82 13 26 28 47 36 47 7 0 13 6 13 14 0 8 -8 13 -17 12 -13 -1 -18 6
-17 24 4 56 22 130 38 156 15 22 17 38 11 93 -12 116 -4 254 16 275 5 6 9 20
9 33 0 13 5 23 10 23 6 0 10 6 10 13 0 17 37 50 73 65 15 7 70 12 121 12 80 0
95 -3 100 -17 8 -27 28 -54 59 -84 15 -15 27 -31 27 -36 0 -4 9 -14 20 -21 15
-9 20 -23 20 -52 0 -35 3 -40 28 -46 15 -4 37 -13 50 -20 12 -8 22 -12 22 -9
0 2 10 -3 22 -13 67 -54 117 -117 119 -149 0 -16 1 -16 9 2 l9 20 1 -20 c1
-11 4 -14 7 -8 8 21 59 -49 69 -94 3 -16 30 -43 42 -43 6 0 12 -4 14 -9 2 -5
17 -11 33 -13 26 -3 30 0 29 20 -1 20 3 22 48 22 30 0 47 -4 43 -10 -3 -5 0
-10 8 -10 8 0 20 -7 27 -15 16 -19 140 -11 188 13 30 15 34 15 60 0 15 -9 29
-26 30 -38 2 -12 12 -25 23 -27 23 -6 26 -45 4 -63 -20 -17 -10 -30 25 -30 23
0 31 -7 46 -42 10 -24 19 -58 21 -77 2 -18 8 -41 13 -51 5 -9 7 -26 4 -37 -4
-14 2 -28 18 -42 l23 -22 3 243 c1 158 -1 244 -8 246 -13 5 -13 32 0 32 6 0
10 35 10 84 0 65 -3 85 -15 90 -19 7 -19 40 0 60 8 8 15 25 15 37 0 18 -3 20
-12 11 -20 -20 -27 -14 -53 44 -14 31 -43 74 -65 95 -29 29 -40 47 -40 70 0
18 -4 28 -10 24 -6 -4 -15 7 -21 24 -11 30 -46 50 -67 37 -15 -9 -72 5 -72 18
0 13 -20 29 -69 54 -46 23 -60 46 -43 72 11 18 9 20 -16 26 -56 12 -62 16 -62
35 0 11 -5 17 -10 14 -5 -3 -10 3 -10 14 0 10 -6 22 -12 24 -10 4 -10 6 0 6 6
1 12 12 12 26 0 14 5 25 10 25 13 0 13 87 -1 95 -6 4 -7 14 -4 24 4 9 11 50
16 91 6 41 12 95 16 119 4 31 2 42 -6 37 -28 -18 -5 85 23 106 6 4 5 12 -2 21
-7 7 -9 17 -6 20 4 4 -5 11 -19 16 -25 10 -26 11 -10 41 8 17 13 33 12 34 -2
2 -23 6 -46 9 -39 5 -45 2 -63 -23 l-20 -28 25 -6 c32 -8 32 -26 1 -26 -14 0
-28 -5 -31 -10 -3 -6 -15 -10 -25 -10 -11 0 -24 -9 -29 -19 -22 -40 -88 -101
-110 -101 -12 0 -19 -4 -16 -10 3 -5 1 -10 -5 -10 -7 0 -6 -8 4 -21 11 -16 12
-28 5 -47 -10 -25 -4 -62 10 -62 4 0 20 -25 35 -55 16 -30 37 -63 47 -74 17
-18 17 -19 -5 -37 -32 -27 -44 -27 -83 -4 -19 11 -40 20 -47 20 -7 0 -23 9
-36 20 -13 11 -33 23 -45 26 -11 3 -29 18 -40 34 -16 24 -27 30 -57 30 -20 0
-40 5 -43 10 -3 6 -15 10 -26 10 -10 0 -19 5 -19 10 0 6 -6 10 -14 10 -14 0
-26 21 -26 46 0 8 9 34 21 59 16 34 27 45 44 45 25 0 35 17 35 61 0 17 9 39
20 51 11 12 20 29 20 37 0 9 10 27 23 41 12 14 38 51 57 83 19 31 38 57 42 57
4 0 8 5 8 10 0 6 10 22 23 35 12 13 33 39 47 59 14 19 36 41 50 48 14 7 37 25
52 40 14 16 33 28 41 28 9 0 19 5 22 10 8 13 122 13 130 0 3 -5 16 -10 28 -10
34 -1 54 -22 67 -70 6 -25 16 -53 21 -62 5 -10 9 -33 9 -51 0 -21 7 -38 20
-47 13 -9 20 -26 20 -47 0 -18 5 -33 10 -33 6 0 10 -13 10 -30 0 -16 5 -30 10
-30 6 0 10 -8 10 -18 0 -11 8 -34 17 -53 9 -19 19 -61 20 -94 2 -33 10 -82 18
-110 18 -64 37 -303 26 -324 -16 -30 8 -67 41 -62 3 0 11 -13 17 -29 5 -17 15
-30 20 -30 14 0 14 17 1 25 -5 3 -10 31 -10 61 0 31 -4 53 -9 49 -5 -3 -12 29
-15 72 -7 106 -7 96 0 206 4 57 2 108 -4 125 -21 58 -55 211 -72 322 -6 41
-15 100 -20 131 -6 30 -10 66 -10 80 0 13 -7 42 -16 64 -8 22 -17 48 -21 58
-3 9 -8 17 -12 17 -3 0 -12 14 -20 31 -7 17 -21 33 -30 37 -9 3 -19 10 -22 15
-9 13 -130 10 -143 -3 -6 -6 -18 -10 -28 -10 -10 0 -18 -4 -18 -10 0 -5 -8
-10 -17 -10 -29 0 -99 -61 -183 -160 -25 -29 -57 -66 -72 -84 -16 -17 -28 -35
-28 -39 0 -4 -15 -23 -32 -41 -18 -19 -51 -59 -73 -91 -22 -32 -44 -63 -50
-69 -5 -6 -16 -23 -24 -38 -8 -16 -18 -28 -23 -28 -4 0 -8 -7 -8 -15 0 -18
-39 -65 -54 -65 -6 0 -32 -10 -58 -23 -40 -19 -66 -23 -165 -25 -65 -2 -134
-5 -153 -8 -81 -13 -215 1 -265 28 -40 20 -121 39 -176 40 -35 0 -50 6 -73 30
-15 17 -30 44 -33 61 -10 72 -63 237 -94 299 -5 10 -9 27 -9 38 0 11 -4 20 -8
20 -5 0 -13 10 -19 23 -43 92 -68 143 -74 147 -3 3 -18 28 -32 55 -31 59 -98
135 -121 135 -9 0 -16 5 -16 10 0 6 -7 10 -15 10 -8 0 -15 5 -15 10 0 6 -22
10 -50 10 -27 0 -50 -4 -50 -10 0 -5 -6 -10 -14 -10 -12 0 -33 -21 -106 -106
-28 -32 -55 -87 -121 -239 -41 -96 -74 -156 -91 -163 -4 -2 -8 -12 -8 -23 0
-10 -4 -19 -10 -19 -5 0 -10 -9 -10 -19 0 -11 -4 -21 -8 -23 -22 -9 -73 -127
-79 -182 -5 -52 -4 -58 12 -55 21 5 30 19 47 82 7 26 16 47 20 47 4 0 8 7 8
15 0 8 5 15 10 15 6 0 10 9 10 19 0 11 5 23 10 26 6 3 10 15 10 26 0 10 5 19
10 19 6 0 10 6 10 13 0 13 128 137 142 137 4 0 8 7 8 15 0 8 5 15 10 15 6 0
10 14 10 30 0 17 4 30 8 30 4 0 14 16 21 35 7 20 35 58 62 85 46 46 54 50 99
50 27 0 52 -5 55 -10 3 -6 15 -10 26 -10 19 0 69 -41 69 -56 0 -4 8 -14 18
-23 9 -9 26 -33 36 -53 11 -21 23 -38 28 -38 5 0 7 -4 4 -9 -3 -5 0 -11 8 -14
18 -7 76 -162 76 -205 0 -11 5 -24 10 -27 6 -3 10 -30 10 -60 0 -30 5 -57 10
-60 6 -3 10 -22 10 -41 0 -21 8 -43 20 -56 18 -20 26 -60 22 -110 -3 -31 -44
-68 -75 -68 -53 0 -107 -23 -137 -57 -16 -18 -39 -33 -50 -33 -11 0 -20 -4
-20 -8 0 -5 -9 -19 -20 -32 -15 -17 -26 -21 -45 -16 -22 6 -27 2 -36 -24 -14
-37 -31 -38 -58 -3 -12 16 -26 34 -31 41 -6 6 -8 12 -5 12 3 0 -1 15 -8 33
-11 26 -29 130 -32 182 0 6 15 9 32 7 20 -2 39 3 48 12 17 16 21 76 5 76 -5 0
-10 8 -10 19 0 10 -7 25 -17 32 -9 8 -25 34 -35 57 -16 36 -18 49 -8 71 13 33
-1 81 -26 81 -12 0 -14 -6 -9 -29 5 -26 2 -32 -24 -46 -17 -8 -31 -23 -30 -33
0 -14 2 -14 9 3 7 17 9 15 9 -13 1 -18 12 -50 26 -72 14 -22 25 -44 25 -50 0
-12 -37 -4 -57 12 -20 16 -31 -22 -35 -116 -2 -65 0 -90 10 -93 15 -6 16 -49
0 -59 -7 -4 -8 -3 -4 4 5 8 0 12 -13 12 -11 0 -23 5 -26 10 -4 6 -11 8 -16 5
-11 -8 -12 -88 0 -101 17 -19 32 -77 21 -88 -5 -5 -10 -18 -10 -28 0 -10 -4
-18 -10 -18 -5 0 -10 -6 -10 -13 0 -8 -12 -19 -27 -26 -16 -8 -36 -17 -46 -22
-11 -6 -24 -6 -34 0 -20 11 -44 -2 -89 -47 -18 -17 -41 -32 -52 -32 -11 0 -27
-11 -36 -25 -9 -14 -21 -23 -26 -20 -6 4 -10 1 -10 -4 0 -16 -42 -13 -64 4
-31 24 -65 19 -72 -10 -3 -14 -3 -32 0 -41 4 -11 -10 -31 -44 -62 -27 -25 -50
-50 -50 -55 0 -9 -25 -37 -34 -37 -16 0 -44 -35 -38 -48 3 -10 1 -13 -6 -8 -8
5 -12 0 -12 -13 0 -12 -4 -21 -10 -21 -5 0 -10 -5 -10 -10 0 -6 -11 -22 -25
-36 -14 -14 -25 -29 -25 -33 0 -11 25 -21 51 -21 10 0 19 -4 19 -10 0 -5 7
-10 16 -10 13 0 15 -7 10 -31 -3 -17 -6 -51 -6 -74 0 -40 -2 -42 -27 -41 -16
0 -38 10 -51 21 -12 10 -44 31 -70 45 -42 22 -48 30 -52 65 -4 34 -11 43 -47
63 -41 23 -43 25 -43 72 0 27 4 52 10 55 14 9 12 72 -2 78 -10 4 -10 6 0 6 6
1 12 12 12 25 0 22 -3 24 -36 20 -27 -3 -50 -19 -103 -74 -38 -39 -73 -70 -78
-70 -20 0 -63 60 -63 89 0 35 1 35 -36 21 -31 -12 -64 -5 -64 14 0 13 -41 36
-65 36 -8 0 -29 9 -47 20 -18 11 -41 20 -51 20 -24 0 -47 24 -47 47 0 10 9 29
20 43 11 14 20 31 20 38 0 7 8 16 18 19 25 10 42 29 42 47 0 9 5 16 10 16 6 0
10 11 10 24 0 14 10 30 25 40 14 9 25 23 25 31 0 8 4 15 9 15 5 0 14 14 21 30
7 17 16 30 21 30 5 0 9 16 9 35 0 19 5 35 10 35 6 0 10 9 10 20 0 11 5 20 10
20 6 0 10 6 10 13 0 23 47 67 71 67 14 0 39 14 57 30 38 34 35 33 82 20 26 -7
43 -22 63 -53 15 -23 36 -49 47 -57 11 -8 20 -23 20 -34 0 -11 3 -17 6 -13 20
20 91 -102 100 -174 4 -27 11 -52 15 -55 5 -3 9 -28 9 -55 0 -28 5 -60 12 -72
6 -12 10 -44 9 -71 -2 -46 7 -65 32 -66 4 0 7 52 7 115 0 79 -4 115 -11 115
-8 0 -10 12 -6 34 3 19 1 51 -4 72 -5 22 -14 62 -18 89 -5 28 -21 82 -36 120
-15 39 -30 83 -33 100 -3 16 -13 44 -23 63 -11 18 -19 43 -19 55 0 26 -21 77
-32 77 -5 0 -8 7 -8 15 0 8 -4 15 -10 15 -5 0 -10 5 -10 11 0 6 -16 27 -35 46
-31 31 -39 34 -82 32 -26 -2 -57 -10 -67 -19 -47 -36 -196 -196 -196 -209 0
-5 -3 -11 -8 -13 -7 -3 -133 -254 -154 -308 -6 -14 -14 -33 -19 -42 -5 -10 -9
-25 -9 -33 0 -8 -4 -15 -10 -15 -5 0 -10 -7 -10 -16 0 -41 -61 -57 -110 -29
-35 20 -44 19 -78 -10 -17 -14 -37 -25 -45 -25 -9 0 -19 -9 -22 -20 -3 -11
-13 -20 -21 -20 -8 0 -24 9 -36 20 -30 27 -54 25 -70 -7 -21 -42 -42 -50 -82
-30 -32 15 -37 15 -51 1 -8 -9 -15 -22 -15 -29 0 -25 -33 -34 -85 -24 -28 5
-58 14 -67 19 -10 6 -27 10 -38 10 -28 0 -110 42 -103 53 3 5 -15 7 -40 6 -32
-2 -49 2 -63 15 -14 15 -27 17 -63 12 -25 -3 -47 -11 -49 -16 -6 -16 -65 -11
-104 8 -55 28 -84 55 -91 83 -4 14 -16 36 -28 50 -21 24 -59 100 -59 117 0 5
-9 17 -20 27 -11 10 -20 24 -20 32 0 7 -4 13 -10 13 -5 0 -10 6 -10 13 0 6
-14 28 -30 47 -16 19 -30 41 -30 48 0 6 -4 12 -9 12 -5 0 -15 16 -22 35 -7 19
-16 35 -20 35 -4 0 -35 27 -69 61 -59 58 -130 99 -170 99 -24 0 -90 -31 -90
-42 0 -5 -9 -19 -20 -31 -27 -28 -85 -149 -101 -209 -8 -27 -17 -48 -21 -48
-4 0 -8 -15 -8 -34 0 -19 -5 -38 -10 -41 -6 -3 -10 -15 -10 -26 0 -10 -4 -27
-9 -37 -11 -23 -41 -108 -55 -157 -6 -22 -13 -42 -17 -45 -29 -25 -39 -355
-10 -355 8 0 17 7 21 15 30 59 31 68 22 102 -10 38 1 125 18 142 6 6 10 23 10
38 0 25 22 87 51 140 5 10 9 22 9 28 0 5 18 29 41 52 22 23 47 57 54 75 8 18
25 44 39 58 14 14 29 31 33 38 40 63 173 60 173 -4 0 -32 16 -40 65 -32 31 5
41 2 61 -20 15 -17 24 -38 24 -59 0 -25 10 -44 40 -76 22 -23 40 -48 40 -56 0
-7 16 -40 35 -72 19 -32 35 -61 35 -66 0 -4 8 -8 17 -8 9 0 14 -3 10 -6 -11
-11 15 -63 34 -69 26 -8 66 -49 74 -75 9 -27 -8 -46 -59 -69 -53 -23 -154
-123 -178 -176 -6 -13 -19 -27 -28 -30 -10 -3 -36 -23 -59 -45 -23 -22 -44
-40 -46 -40 -7 0 -45 39 -45 46 0 5 -59 93 -70 104 -3 3 -17 24 -33 47 -22 35
-25 46 -16 66 8 18 7 32 -5 60 -12 30 -20 37 -43 37 -15 0 -36 -7 -45 -14 -18
-13 -25 -51 -10 -58 18 -8 52 -70 52 -94 0 -15 -10 -35 -22 -45 -19 -17 -20
-23 -10 -57 6 -20 13 -50 15 -67 2 -16 7 -37 11 -46 5 -11 -1 -19 -17 -26 -14
-7 -33 -28 -43 -49 -11 -21 -28 -42 -38 -48 -11 -6 -31 -21 -45 -34 -15 -12
-35 -25 -46 -28 -11 -4 -41 -26 -67 -50 -65 -61 -91 -58 -101 11 -3 22 -9 55
-13 73 -4 21 -2 32 5 32 7 0 11 31 11 90 0 77 -3 94 -20 112 -15 17 -20 18
-20 6 0 -23 -30 -79 -40 -73 -5 3 -11 1 -15 -5 -3 -5 -22 -10 -41 -10 -19 0
-34 -4 -34 -10 0 -6 -53 -10 -138 -10 -120 0 -144 -3 -182 -21 -119 -58 -185
-64 -197 -18 -5 17 -14 20 -67 18 -66 -2 -130 -20 -157 -45 -11 -10 -34 -14
-65 -13 -27 1 -62 -4 -79 -11 -50 -21 -140 -37 -160 -29 -11 4 -66 7 -123 8
-57 0 -106 2 -110 5 -4 2 -72 14 -152 26 -79 11 -150 26 -157 32 -7 6 -13 23
-13 38 0 15 -9 35 -20 45 -11 10 -20 15 -20 11 0 -4 -7 -1 -15 8 -8 8 -15 27
-15 41 0 17 -11 37 -30 55 -24 23 -30 36 -30 72 0 32 -5 46 -20 56 -14 8 -20
23 -20 46 0 18 -7 39 -15 46 -8 7 -15 22 -15 34 0 11 -7 39 -16 61 -8 22 -17
48 -21 58 -3 9 -9 17 -14 17 -5 0 -9 17 -9 39 0 29 -7 46 -30 69 -27 29 -30
38 -30 95 0 35 -4 67 -9 72 -6 6 -11 30 -13 55 l-3 45 -35 -37 c-52 -54 -86
-54 -147 -2 -64 54 -59 67 35 106 17 7 32 16 32 20 0 17 40 6 69 -18 23 -19
32 -22 36 -12 7 17 -9 149 -24 203 -6 22 -11 108 -11 190 0 141 -12 248 -32
270 -4 5 -8 19 -8 30 0 12 -3 25 -7 29 -11 11 -33 79 -33 104 0 12 -4 22 -10
22 -5 0 -10 10 -10 23 0 13 -4 27 -8 32 -9 10 -22 52 -43 140 -7 28 -18 57
-24 65 -7 8 -16 31 -20 50 -4 19 -13 45 -21 57 -8 12 -14 28 -14 35 0 8 -9 20
-20 28 -11 8 -20 20 -20 27 0 7 -4 13 -9 13 -5 0 -16 6 -23 14 -52 51 -125 52
-184 1 -16 -14 -32 -25 -37 -25 -11 0 -60 -50 -87 -90 -13 -19 -32 -42 -42
-51 -10 -9 -18 -23 -18 -32 0 -8 -4 -17 -8 -19 -15 -6 -82 -110 -82 -127 0
-10 -9 -27 -20 -39 -11 -12 -20 -26 -20 -32 0 -5 -4 -10 -10 -10 -5 0 -10 -9
-10 -20 0 -24 -16 -54 -48 -89 -12 -14 -22 -29 -22 -34 0 -4 -4 -5 -10 -2 -5
3 -10 1 -10 -5 0 -6 -4 -9 -9 -5 -5 3 -21 -9 -35 -27 -20 -26 -31 -32 -59 -30
-28 2 -40 -3 -59 -27 -28 -33 -36 -30 -59 19 -17 38 -8 35 -159 43 -47 3 -70
0 -82 -11 -16 -13 -20 -13 -36 1 -21 19 -57 22 -67 7 -4 -7 -28 -8 -65 -4 -43
5 -69 2 -103 -11 -35 -13 -52 -15 -81 -6 -21 5 -44 7 -52 4 -9 -3 -14 2 -14
15 0 17 -5 20 -22 15 -64 -15 -88 -15 -88 1 0 9 -7 16 -15 16 -8 0 -15 9 -15
20 0 23 -9 25 -44 9 -20 -10 -30 -9 -51 5 -14 9 -25 22 -25 29 0 6 -12 21 -27
31 -26 19 -26 19 -44 -5 -17 -23 -18 -23 -38 -5 -11 10 -23 28 -27 40 -3 11
-12 28 -19 36 -21 25 -75 130 -75 146 0 8 -4 14 -10 14 -5 0 -10 9 -10 20 0
11 -4 20 -10 20 -5 0 -10 6 -10 14 0 8 -3 16 -7 18 -5 2 -26 37 -48 78 -21 41
-47 84 -57 94 -10 11 -18 26 -18 33 0 7 -3 13 -8 13 -4 0 -18 10 -32 23 -31
28 -101 59 -137 62 -48 3 -53 5 -53 14 0 5 29 9 64 9 35 0 69 3 75 7 6 3 14
-1 17 -9 3 -9 21 -25 40 -37 19 -11 34 -27 34 -35 0 -8 6 -14 13 -14 7 0 21
-13 30 -30 10 -16 23 -30 28 -30 6 0 7 -4 4 -10 -3 -5 1 -10 9 -10 8 0 20 -8
25 -17 9 -15 10 -12 11 15 0 21 -5 32 -14 32 -14 0 -26 29 -26 63 0 9 5 17 10
17 6 0 10 -7 10 -16 0 -11 6 -14 23 -9 18 6 20 5 10 -6 -14 -14 -17 -39 -5
-39 4 0 15 12 24 28 l17 27 1 -42 c0 -43 13 -57 24 -27 3 9 6 27 6 40 0 18 6
24 23 25 19 1 20 2 3 6 -11 3 -28 16 -39 29 -10 13 -24 24 -32 24 -18 0 -28
32 -13 42 7 4 23 8 35 8 12 0 24 8 28 19 6 19 32 31 72 31 24 0 43 26 43 59 0
12 5 21 10 21 6 0 10 7 10 15 0 8 9 19 20 25 31 17 25 40 -10 40 -23 0 -30 -4
-30 -20 0 -17 -7 -20 -40 -20 -36 0 -40 2 -40 26 l0 26 -80 -7 c-77 -7 -80 -6
-80 14 0 18 -6 21 -41 21 -24 0 -47 7 -57 16 -10 11 -17 13 -20 6 -2 -8 -9 -8
-23 1 -14 9 -19 23 -19 54 0 36 -3 43 -19 43 -10 0 -21 -7 -25 -15 -7 -19 -36
-19 -36 0 0 8 9 15 19 15 10 0 22 7 25 16 4 11 13 14 30 10 14 -3 28 -2 31 4
10 17 55 12 55 -6 0 -14 10 -15 80 -9 56 5 80 4 80 -4 0 -6 -4 -11 -10 -11 -5
0 -10 -8 -10 -18 0 -10 -6 -27 -14 -38 -15 -19 -15 -19 -30 1 -15 20 -15 20
-16 -2 0 -21 4 -23 60 -23 47 0 58 3 54 14 -3 8 -12 17 -20 20 -17 7 -18 33
-1 50 7 7 29 15 50 19 55 9 69 23 61 63 -6 31 -4 34 20 34 15 0 30 -8 36 -20
6 -11 20 -20 31 -20 16 0 18 3 9 19 -5 11 -10 28 -10 39 0 11 -12 37 -26 58
-16 23 -22 40 -15 42 6 2 11 21 11 43 0 21 2 39 5 39 3 0 18 -15 34 -32 l29
-33 41 33 c22 17 47 32 55 32 20 0 20 10 1 37 l-16 22 -48 -19 -49 -19 -16 22
-16 22 -16 -22 -15 -21 -25 23 c-29 27 -30 35 -4 35 11 0 20 6 20 13 0 16 55
37 96 37 52 0 84 59 44 80 -33 18 -23 30 25 30 l45 0 0 80 0 79 58 3 57 3 -40
18 c-58 26 -68 32 -72 43 -5 16 28 49 70 69 20 9 37 21 37 26 0 4 -16 20 -35
35 -27 21 -75 97 -75 120 0 12 30 -1 60 -26 19 -17 38 -30 42 -30 4 0 8 23 8
51 0 40 -5 55 -22 68 -12 10 -18 23 -14 29 10 17 36 15 36 -3 0 -16 34 -20 88
-9 31 6 31 7 34 73 2 53 6 66 21 69 10 2 17 -3 17 -12 0 -12 10 -16 35 -16 39
0 85 25 85 46 0 17 -40 55 -52 48 -12 -8 -10 -42 5 -48 6 -4 -16 -4 -50 -1
-51 4 -63 2 -63 -10 0 -16 -26 -10 -48 12 -23 23 5 70 47 78 21 4 37 2 41 -5
4 -7 12 1 20 19 14 36 26 39 35 11 5 -14 15 -20 37 -20 l31 0 -6 54 c-4 38 -1
60 8 73 19 24 18 33 -3 33 -9 0 -23 -9 -30 -20 -9 -15 -23 -20 -58 -20 -37 0
-47 -4 -51 -20 -3 -13 -14 -20 -29 -20 -20 0 -22 3 -14 23 5 12 11 34 14 49 4
15 15 32 26 38 17 9 20 8 20 -10 0 -24 6 -24 136 -8 81 10 97 9 106 -3 7 -10
8 -7 4 11 -3 14 -6 34 -6 46 0 16 -10 24 -40 33 -22 6 -40 16 -40 21 0 9 109
45 114 38 10 -11 25 -72 20 -79 -3 -5 4 -21 15 -35 l20 -25 17 26 c10 15 20
47 24 71 6 38 4 44 -11 44 -10 0 -21 -5 -24 -10 -12 -19 -35 18 -35 54 l0 36
48 0 c42 0 50 3 65 30 10 17 22 30 27 30 5 0 17 -13 27 -30 14 -25 24 -30 55
-30 21 0 38 5 38 10 0 6 -18 10 -40 10 -46 0 -56 24 -15 34 14 4 25 11 25 16
0 17 18 11 64 -22 42 -31 45 -36 45 -80 l1 -48 39 0 c22 0 41 -5 44 -12 2 -8
8 -9 13 -4 5 5 4 11 -3 13 -8 3 -13 23 -13 49 l0 44 40 0 40 0 0 41 0 41 -37
-5 c-21 -2 -30 -2 -20 0 11 3 17 14 17 33 0 22 5 30 23 32 12 3 -2 4 -30 4
l-53 -1 0 -37 c0 -31 -4 -38 -20 -38 -17 0 -20 7 -20 40 0 40 -15 55 -23 23
-4 -16 -5 -16 -12 1 -6 13 -4 21 3 24 21 7 14 42 -8 42 -11 0 -20 -4 -20 -10
0 -5 -9 -10 -20 -10 -22 0 -28 35 -7 43 9 4 9 6 0 6 -17 1 -18 81 -1 81 6 0 8
3 4 7 -4 4 -27 6 -51 4 -36 -2 -45 1 -45 14 0 13 9 16 48 14 42 -3 47 -1 45
18 -2 18 5 21 55 27 31 3 171 6 310 5 139 -1 256 2 259 5 7 6 -9 7 -547 8
-259 0 -312 3 -235 9 55 5 253 11 439 13 186 3 341 8 344 11 3 3 -2281 5
-5076 5 l-5082 0 0 -1695z m7908 -967 c-3 -7 -14 -14 -26 -16 -14 -2 -24 -13
-28 -30 -4 -15 -12 -33 -18 -41 -13 -17 -55 -176 -55 -213 -1 -15 -5 -30 -11
-33 -5 -3 -10 -15 -10 -26 0 -11 -4 -17 -10 -14 -9 5 -16 -40 -11 -68 1 -5 -3
-6 -9 -2 -5 3 -10 -3 -10 -14 0 -12 -4 -21 -10 -21 -5 0 -10 -15 -10 -34 0
-20 -6 -36 -14 -39 -20 -8 -26 1 -26 39 0 32 23 88 32 79 3 -3 8 18 11 46 4
29 13 59 21 68 8 9 16 42 19 73 2 31 9 63 14 70 6 7 17 32 24 56 8 28 29 60
57 88 43 42 78 58 70 32z m2255 -378 c24 -12 32 -11 61 2 18 9 37 13 43 10 19
-13 62 -86 56 -95 -3 -6 -1 -7 5 -3 8 5 12 -2 13 -21 0 -25 1 -26 9 -8 8 18 9
18 9 -5 1 -15 16 -38 40 -60 29 -27 44 -52 60 -103 11 -36 27 -80 36 -96 8
-17 15 -41 15 -55 0 -13 4 -26 10 -28 9 -3 16 -86 26 -298 3 -52 9 -105 15
-117 9 -16 8 -29 -2 -52 -8 -17 -17 -31 -21 -31 -5 0 -8 -9 -8 -19 0 -20 -9
-25 -74 -36 -21 -3 -47 -12 -57 -18 -27 -17 -53 2 -60 44 -4 19 -7 30 -8 24
-1 -5 -10 3 -20 19 -17 26 -19 41 -14 115 3 47 10 91 14 97 10 12 4 137 -6
154 -4 6 -1 17 5 26 8 8 11 30 7 53 -2 21 -1 57 3 80 l7 41 -48 0 c-27 0 -49
3 -49 7 0 10 42 53 52 53 18 0 38 29 38 54 0 35 -35 44 -64 17 -12 -12 -26
-21 -31 -21 -21 0 -45 -35 -45 -66 0 -18 -6 -37 -13 -41 -29 -17 -27 -41 5
-52 17 -6 39 -11 49 -11 10 0 23 -9 29 -20 13 -24 -14 -69 -43 -70 -24 0 -68
-30 -61 -41 3 -5 24 -9 47 -9 23 0 49 -5 57 -10 12 -8 10 -14 -13 -38 -30 -32
-35 -59 -11 -76 12 -9 13 -17 5 -36 -13 -33 -105 -130 -123 -130 -15 0 -38 40
-38 66 0 8 -5 12 -11 9 -15 -10 -79 4 -79 16 0 18 -23 34 -68 48 -32 11 -44
21 -49 40 -7 31 -20 41 -50 41 -13 0 -23 4 -23 8 0 4 -20 18 -45 30 -75 36
-74 84 0 122 25 13 45 27 45 32 0 5 5 6 10 3 6 -4 10 5 10 19 0 14 5 26 10 26
6 0 10 5 10 11 0 6 6 17 14 25 8 8 21 38 30 67 10 34 28 64 51 87 19 18 35 42
35 52 0 10 5 18 10 18 6 0 10 9 10 20 0 11 3 20 8 20 4 0 13 14 21 32 21 47
52 78 77 78 13 0 26 5 29 11 4 5 10 9 13 7 4 -2 19 -10 35 -18z m-1153 -846
c0 -13 5 -24 11 -24 18 0 -7 -181 -42 -295 -12 -38 -25 -97 -29 -130 -4 -33
-10 -72 -14 -87 -3 -16 -8 -39 -11 -53 -3 -14 -10 -25 -15 -25 -13 0 -13 103
-1 116 12 12 19 85 25 251 2 73 10 141 16 154 7 12 12 40 12 63 -1 22 4 46 9
53 16 18 39 4 39 -23z m-5667 -723 c8 -6 18 -23 21 -36 4 -14 11 -25 17 -25 6
0 7 -4 4 -10 -3 -5 0 -10 8 -10 8 0 17 -12 19 -27 3 -16 9 -36 13 -45 6 -16 1
-18 -33 -18 -32 0 -42 -4 -47 -21 -4 -11 -4 -23 -1 -26 9 -9 55 6 73 25 10 10
23 17 28 17 24 -4 45 -18 45 -31 0 -8 5 -14 10 -14 6 0 10 -19 10 -43 0 -31 5
-46 20 -57 11 -8 20 -24 20 -36 0 -11 13 -41 29 -65 16 -24 27 -47 25 -51 -3
-4 0 -8 5 -8 6 0 11 -13 11 -30 0 -16 5 -30 10 -30 6 0 10 -15 10 -32 0 -22 3
-29 9 -20 5 9 10 -1 14 -30 4 -23 12 -63 18 -88 6 -25 14 -83 16 -130 2 -47 9
-89 14 -95 19 -20 1 -115 -23 -115 -4 0 -8 -7 -8 -15 0 -8 -4 -15 -9 -15 -5 0
-14 -14 -20 -30 -13 -39 6 -49 45 -24 26 18 26 17 21 -1 -16 -59 -16 -77 -3
-98 19 -28 4 -62 -51 -126 l-39 -43 -49 17 c-56 18 -68 31 -54 56 15 28 11 42
-10 36 -30 -7 -15 19 41 76 50 51 60 76 31 79 -58 5 -73 4 -73 -3 0 -5 -9 -9
-19 -9 -20 0 -31 18 -31 50 0 10 -7 20 -15 24 -24 9 -18 34 15 57 36 27 42 43
29 73 -9 19 -7 33 10 71 12 26 21 49 21 50 0 2 -14 6 -30 10 -29 6 -30 9 -26
45 2 24 -1 46 -11 59 -9 14 -14 42 -12 84 2 76 -9 209 -21 258 -6 22 -20 41
-36 49 -23 13 -31 12 -82 -15 -48 -26 -57 -36 -67 -70 -6 -25 -19 -44 -33 -50
-27 -12 -30 -45 -3 -45 25 0 43 -23 34 -46 -8 -23 -28 -44 -40 -44 -5 0 -18
-8 -29 -18 -10 -10 -26 -21 -35 -24 -9 -3 -26 -27 -37 -52 -35 -74 -29 -82 34
-39 49 33 149 39 178 11 16 -17 15 -20 -18 -53 -20 -20 -36 -40 -36 -45 0 -6
-5 -10 -11 -10 -10 0 -89 -76 -89 -87 0 -2 -6 -10 -12 -17 -7 -7 -22 -25 -33
-40 -11 -15 -28 -37 -37 -48 -10 -12 -18 -25 -18 -30 0 -12 -42 -27 -58 -20
-9 3 -11 14 -7 32 6 28 -8 49 -20 30 -3 -5 -15 -10 -26 -10 -11 0 -17 4 -14
10 3 5 -4 17 -15 27 -12 10 -31 26 -42 36 -12 9 -29 17 -39 17 -10 0 -27 14
-39 30 -13 19 -30 30 -45 30 -28 0 -115 84 -115 111 0 21 22 58 53 91 20 20
33 39 30 42 -4 3 1 6 11 6 9 0 15 4 12 8 -3 5 4 15 15 22 10 8 19 18 19 23 0
4 9 17 20 29 11 12 20 31 20 43 0 11 11 29 25 39 17 12 28 35 36 74 13 64 28
102 41 102 4 0 8 7 8 15 0 8 5 15 10 15 6 0 10 11 10 25 0 14 5 25 10 25 6 0
10 10 10 23 0 12 14 35 30 50 17 16 30 39 30 52 0 16 10 27 35 39 19 9 46 28
60 42 20 20 32 24 55 19 16 -4 36 -2 45 3 17 9 102 -15 128 -37z m-3010 -340
c23 -16 54 -42 68 -57 34 -38 67 -64 79 -64 6 0 10 -4 10 -9 0 -6 37 -47 83
-93 45 -46 102 -107 125 -135 24 -28 61 -59 83 -69 28 -12 36 -20 27 -26 -9
-5 -6 -8 10 -8 12 0 22 -4 22 -10 0 -5 7 -10 17 -10 14 0 56 -27 106 -70 20
-17 22 -53 4 -72 -13 -13 -17 -21 -17 -35 0 -5 -14 -16 -30 -25 -17 -9 -30
-24 -30 -33 0 -8 -4 -15 -10 -15 -5 0 -10 -7 -10 -15 0 -8 -16 -32 -35 -52
-19 -20 -35 -46 -35 -56 0 -11 -10 -28 -22 -39 -15 -13 -22 -29 -21 -54 1 -29
-7 -44 -38 -76 -21 -22 -39 -45 -39 -50 0 -16 -27 -38 -47 -38 -39 0 -59 50
-27 68 14 8 10 16 -28 56 -25 25 -50 46 -56 46 -7 0 -12 5 -12 10 0 6 -5 10
-11 10 -14 0 -3 -49 17 -71 20 -23 18 -60 -5 -66 -21 -5 -45 -49 -31 -58 4 -3
11 -18 15 -34 3 -16 13 -35 21 -42 15 -12 20 -89 5 -89 -5 0 -11 -9 -14 -20
-3 -11 -13 -23 -23 -27 -36 -13 -72 -54 -67 -73 4 -14 -3 -25 -26 -37 -17 -10
-31 -24 -31 -31 0 -7 -4 -10 -10 -7 -5 3 -10 -3 -10 -15 0 -12 -4 -18 -10 -15
-5 3 -10 1 -10 -4 0 -6 -4 -11 -9 -11 -4 0 -6 11 -4 23 4 19 -5 32 -38 60 -23
21 -46 37 -51 37 -11 0 -10 234 1 245 9 9 2 44 -31 155 -6 19 -13 60 -15 90
-3 30 -13 66 -23 80 -9 14 -23 50 -30 80 -7 30 -19 68 -27 83 -18 35 -26 336
-11 412 5 28 9 92 9 144 -2 133 4 141 115 141 78 0 89 -3 127 -29z m12045
-281 c2 -6 37 -10 82 -10 57 0 81 -4 90 -15 17 -20 10 -26 -42 -35 -30 -6 -64
-4 -108 7 -36 8 -80 15 -97 14 -43 -1 -54 -1 -215 5 -88 3 -138 9 -138 16 0 6
-6 6 -15 -2 -12 -10 -19 -10 -28 -1 -19 19 3 26 85 30 40 1 74 3 75 4 7 8 309
-5 311 -13z m-126 -151 c9 -5 27 -9 40 -9 35 0 61 -22 52 -44 -7 -19 -37 -19
-139 3 -96 21 -134 24 -150 11 -11 -9 -19 -9 -28 -2 -7 6 -44 12 -82 14 l-70
3 35 16 c26 12 39 13 49 5 19 -15 111 -8 128 10 15 14 132 9 165 -7z m-5784
-410 c3 -53 1 -74 -9 -80 -11 -6 -11 -11 -1 -21 14 -14 17 -128 2 -128 -5 0
-10 -15 -10 -33 0 -18 -4 -37 -10 -43 -5 -5 -11 -86 -13 -179 -5 -186 -12
-236 -32 -229 -20 8 -18 290 2 322 12 20 12 27 -1 52 -10 22 -13 51 -9 112 3
46 9 88 14 93 4 6 7 57 6 113 -2 82 1 105 13 112 27 17 44 -15 48 -91z m8636
74 c83 -39 81 -153 -3 -153 -62 0 -131 49 -131 94 0 14 5 26 11 26 7 0 22 11
35 25 27 29 41 31 88 8z m-12816 -381 c23 -3 32 -9 32 -22 0 -32 11 -50 31
-50 15 0 19 -7 19 -35 0 -19 3 -35 8 -35 4 0 13 -13 20 -29 16 -37 46 -71 61
-71 7 0 9 -4 6 -10 -4 -6 7 -10 26 -10 28 0 31 -2 25 -22 -13 -42 -11 -52 9
-56 36 -7 37 -19 2 -51 -51 -48 -83 -61 -154 -61 -40 0 -62 -4 -58 -10 4 -6
-5 -10 -19 -10 -14 0 -26 -4 -26 -10 0 -5 -6 -10 -13 -10 -7 0 -18 -9 -25 -20
-7 -11 -18 -20 -25 -20 -20 0 -67 -56 -67 -79 0 -11 4 -31 10 -46 8 -20 6 -34
-6 -58 -22 -42 -69 -87 -91 -87 -32 0 -94 44 -113 80 -38 72 -60 127 -60 148
0 12 -4 22 -10 22 -5 0 -10 13 -10 29 0 17 -4 33 -10 36 -5 3 -10 22 -10 41 0
19 5 34 10 34 6 0 10 9 10 20 0 11 4 28 9 38 12 24 37 104 56 182 16 65 37
100 62 100 7 0 13 5 13 10 0 6 5 10 11 10 6 0 17 7 25 15 9 8 32 15 53 15 21
0 41 3 45 7 12 13 90 31 106 25 8 -3 30 -7 48 -10z m-1003 -82 c3 -5 15 -10
25 -10 10 0 20 -4 22 -9 2 -4 22 -20 46 -35 23 -14 42 -33 42 -42 0 -8 9 -34
20 -56 11 -23 20 -52 20 -64 0 -13 5 -26 10 -29 6 -4 10 -64 10 -146 0 -91 -4
-138 -10 -134 -5 3 -10 -3 -10 -14 0 -10 -5 -21 -12 -23 -7 -3 -12 -29 -13
-69 -1 -55 -5 -70 -25 -92 -73 -77 -68 -97 21 -97 26 0 39 -4 38 -12 -3 -18
12 -70 23 -85 7 -8 3 -19 -11 -34 -12 -13 -21 -28 -21 -35 0 -13 48 -64 61
-64 4 0 15 -8 25 -17 22 -22 81 -21 98 3 13 17 14 16 25 -4 16 -29 57 -29 72
1 7 12 13 45 14 72 2 67 11 89 40 105 24 13 35 50 15 50 -18 0 -10 34 14 63
29 34 87 38 113 7 10 -11 28 -20 42 -20 26 0 111 -77 111 -101 1 -21 25 -49
44 -49 9 0 16 -4 16 -10 0 -5 7 -10 16 -10 8 0 12 -4 9 -10 -4 -6 26 -10 84
-10 49 0 93 -4 96 -10 9 -15 32 -12 54 6 16 14 17 22 9 46 -6 16 -8 31 -5 34
3 3 24 0 47 -7 37 -11 43 -11 52 4 6 11 22 17 47 17 48 0 54 7 30 31 -35 35
-20 69 29 69 10 0 29 20 44 45 15 25 33 45 41 45 7 0 27 16 46 35 18 19 39 35
46 35 23 0 27 19 11 51 -16 32 -12 59 9 59 7 0 31 20 53 44 31 34 39 49 35 70
-4 21 -1 26 14 26 25 0 43 -19 43 -45 0 -13 21 -39 55 -68 53 -47 55 -47 116
-45 43 2 64 -1 67 -10 6 -19 61 -14 84 8 16 15 36 20 73 20 37 0 57 -5 73 -20
12 -11 26 -20 32 -20 6 0 8 -4 5 -10 -4 -6 11 -10 38 -10 41 0 49 -5 102 -57
49 -48 56 -60 46 -75 -19 -31 -12 -46 34 -68 45 -22 71 -51 57 -64 -4 -4 1
-12 11 -17 9 -6 17 -21 17 -34 0 -23 -4 -25 -41 -25 -38 0 -41 -2 -35 -23 4
-16 -1 -31 -14 -44 -19 -21 -19 -21 30 -72 28 -27 50 -53 50 -57 0 -3 -11 -4
-25 -1 -18 3 -29 -1 -35 -13 -6 -11 -17 -16 -33 -13 -14 3 -29 -2 -36 -11 -11
-13 -9 -17 12 -25 14 -6 31 -20 37 -31 9 -18 8 -24 -6 -34 -14 -10 -15 -19 -7
-42 13 -39 6 -64 -18 -64 -16 0 -18 -5 -13 -27 9 -38 13 -43 29 -43 16 0 31
-43 21 -59 -4 -5 -2 -12 4 -16 6 -4 8 -11 4 -16 -8 -13 40 -61 84 -83 42 -22
43 -52 2 -58 -17 -3 -33 -1 -36 4 -8 12 -34 10 -34 -3 0 -7 -8 -18 -17 -25
-17 -12 -17 -13 2 -20 19 -6 85 -69 85 -80 0 -3 -24 -4 -52 -2 -47 3 -54 0
-63 -19 -5 -13 -17 -23 -26 -23 -9 0 -20 -7 -23 -16 -6 -15 -8 -15 -26 1 -26
23 -54 13 -44 -17 9 -31 9 -31 32 -19 27 14 62 3 62 -20 0 -12 11 -24 28 -31
l27 -12 -29 -4 c-16 -2 -33 1 -39 7 -16 16 -57 13 -64 -5 -3 -8 4 -28 16 -44
26 -36 26 -36 -4 -56 -22 -14 -27 -14 -56 0 -17 9 -36 13 -41 10 -5 -3 -15 -1
-23 6 -8 6 -16 7 -19 2 -5 -9 3 -28 41 -95 6 -11 10 -25 7 -29 -9 -13 -51 -9
-64 7 -16 20 -40 19 -40 0 0 -9 6 -28 14 -44 23 -44 5 -59 -36 -28 -47 36 -81
28 -76 -19 5 -41 -22 -52 -61 -25 -14 10 -38 26 -53 35 -34 20 -38 56 -7 56
19 0 21 4 14 33 -4 17 -8 38 -8 45 -1 8 18 20 43 28 25 9 53 25 63 37 16 18
21 19 39 8 17 -10 19 -10 16 1 -3 7 -16 13 -29 14 -13 0 -34 6 -46 12 -12 7
-30 12 -40 12 -15 0 -14 2 5 16 18 12 20 19 12 29 -16 19 31 49 64 41 22 -5
25 -3 23 21 -2 24 2 28 21 26 33 -4 27 13 -13 31 -39 19 -42 27 -20 46 11 9
14 22 10 42 -5 21 -2 35 11 49 9 10 15 20 13 22 -2 1 -13 7 -23 13 -16 8 -29
25 -43 52 0 2 -14 -3 -31 -12 -16 -8 -32 -13 -35 -10 -3 3 -10 -4 -17 -15 -8
-16 -20 -21 -48 -21 -21 0 -44 -6 -50 -12 -17 -17 -34 8 -28 41 6 37 -13 81
-35 81 -10 0 -19 -4 -19 -10 0 -5 -11 -17 -25 -26 -29 -19 -44 -11 -69 39 -23
45 -37 66 -63 93 -13 13 -23 28 -23 35 0 7 -9 9 -22 6 -14 -4 -31 2 -51 19
-16 14 -35 23 -41 21 -18 -6 -13 -29 9 -41 40 -22 50 -66 15 -66 -11 0 -20 -3
-20 -8 0 -4 -10 -12 -22 -17 -13 -6 -27 -20 -33 -32 -8 -20 -18 -24 -52 -23
-5 1 -6 17 -5 36 3 30 1 35 -15 32 -10 -2 -20 -15 -24 -33 l-7 -30 -1 28 c-1
29 -13 33 -55 18 -18 -7 -28 -6 -36 5 -22 26 -32 16 -25 -25 5 -29 2 -46 -11
-67 -18 -26 -17 -27 5 -45 13 -11 18 -19 12 -19 -6 0 -11 -6 -11 -12 0 -26
-19 -41 -51 -42 -25 -1 -37 -7 -46 -26 -7 -14 -18 -25 -25 -25 -7 0 -14 -8
-16 -17 -2 -10 1 -18 7 -18 6 0 11 -4 11 -10 0 -16 -37 -12 -44 5 -3 8 -12 15
-20 15 -8 0 -16 5 -18 10 -2 6 -23 12 -48 15 -89 8 -110 16 -126 46 -17 33
-19 34 -59 10 -18 -11 -29 -25 -27 -35 4 -24 -23 -30 -52 -11 -19 13 -29 14
-45 6 -25 -14 -32 -13 -55 4 -19 14 -19 15 -1 35 14 16 15 22 5 35 -8 10 -17
12 -28 6 -9 -5 -27 -5 -43 1 -20 7 -40 6 -66 -3 -42 -14 -74 -38 -51 -40 10 0
10 -2 -1 -6 -11 -5 -11 -7 0 -14 10 -6 11 -9 2 -9 -7 0 -13 -7 -13 -16 0 -14
-3 -14 -15 -4 -8 7 -15 19 -15 26 0 10 -14 14 -49 14 -28 0 -53 5 -57 11 -3 6
-19 9 -35 5 -18 -3 -34 0 -43 9 -17 17 -36 20 -36 5 0 -5 -9 -10 -21 -10 -12
0 -44 -21 -71 -47 -28 -27 -64 -60 -80 -75 -16 -16 -33 -28 -36 -28 -15 0 -52
-72 -52 -100 0 -37 18 -32 43 12 14 23 21 28 29 20 17 -17 43 -15 83 8 38 21
55 19 55 -6 0 -16 -57 -74 -74 -75 -36 -3 -74 -11 -93 -21 -31 -15 -46 -58
-33 -92 5 -15 10 -38 10 -50 0 -13 11 -38 25 -57 13 -19 34 -52 46 -74 12 -22
29 -45 39 -52 31 -22 80 -71 80 -81 0 -5 -14 -13 -31 -18 -18 -5 -35 -16 -40
-24 -38 -75 -42 -109 -13 -111 8 -1 17 -2 22 -4 55 -15 69 -21 86 -37 11 -10
29 -18 41 -18 11 0 27 -9 35 -20 8 -11 22 -20 32 -20 10 0 18 -6 18 -14 0 -25
83 -48 172 -49 100 -1 177 12 240 41 26 12 53 22 60 22 7 0 26 -18 41 -40 16
-22 34 -40 41 -40 7 0 23 -13 36 -30 13 -16 29 -30 37 -30 7 0 18 -10 24 -23
6 -13 20 -24 32 -24 22 -2 68 -22 77 -34 10 -13 -2 -119 -12 -113 -6 4 -8 -1
-5 -12 3 -11 8 -34 12 -51 4 -18 11 -33 16 -33 12 0 12 37 -1 45 -16 10 -12
21 16 46 14 13 30 35 35 48 9 23 10 23 29 6 24 -22 25 -37 5 -76 -11 -21 -13
-34 -6 -48 8 -14 6 -23 -10 -37 -11 -10 -15 -20 -10 -24 6 -3 11 -37 13 -75 3
-67 2 -70 -19 -67 -25 3 -28 -1 -38 -47 l-7 -34 30 21 c26 19 31 20 36 6 11
-28 6 -71 -9 -84 -25 -21 -19 -43 10 -38 29 6 30 1 14 -72 -9 -43 -14 -50 -34
-50 -22 0 -24 5 -27 53 -2 43 -6 52 -23 55 -18 2 -20 -2 -17 -50 2 -51 1 -54
-35 -81 -21 -15 -58 -43 -83 -62 l-45 -35 -3 27 c-2 16 3 32 12 39 18 13 22
54 4 54 -6 0 -19 -7 -29 -15 -15 -14 -18 -14 -33 0 -9 9 -16 33 -16 52 0 31
-9 42 -13 16 -2 -13 -40 -53 -50 -53 -5 0 -22 -9 -38 -20 -24 -18 -31 -19 -49
-8 -11 7 -20 16 -20 20 0 5 -6 8 -13 8 -7 0 -18 9 -25 20 -16 25 -34 25 -57 0
-10 -11 -26 -20 -37 -20 -10 0 -18 -4 -18 -10 0 -5 -9 -10 -20 -10 -25 0 -25
5 1 41 17 24 18 31 7 42 -7 6 -24 12 -38 12 -21 0 -25 4 -22 28 3 21 -1 27
-15 27 -23 0 -43 18 -43 39 0 8 11 29 25 47 14 18 25 36 25 41 0 4 14 22 30
40 17 18 30 43 30 57 0 22 -5 26 -28 26 -16 0 -29 -6 -29 -12 0 -7 -14 -39
-31 -70 -31 -57 -31 -58 -46 -36 -9 12 -16 30 -16 40 0 10 -4 18 -10 18 -5 0
-10 7 -10 16 0 8 -4 12 -10 9 -6 -4 -10 14 -10 47 0 48 -2 54 -21 55 -36 3
-44 19 -30 59 15 42 12 48 -32 46 -20 -1 -34 4 -34 11 -1 7 -2 30 -3 52 -1 22
1 55 5 73 l8 33 -74 -2 c-47 -1 -74 2 -77 10 -2 6 -10 11 -18 11 -8 0 -14 4
-14 10 0 5 -16 12 -35 16 -37 7 -75 34 -75 53 0 6 -12 16 -26 21 -19 8 -24 15
-19 28 3 9 9 28 11 42 5 24 4 25 -43 23 -36 -2 -43 0 -28 6 19 9 19 10 -2 10
-14 1 -23 -5 -23 -13 0 -9 -7 -12 -20 -9 -22 6 -26 18 -10 28 6 3 10 28 10 55
0 44 -2 49 -30 58 -21 8 -30 17 -30 34 0 13 -1 46 -3 73 -2 46 -4 50 -26 47
-13 -2 -43 -15 -67 -28 -52 -29 -64 -30 -57 -4 3 11 9 17 14 14 5 -3 9 2 9 11
0 8 9 23 20 32 41 35 14 44 -45 16 -19 -9 -37 -14 -41 -10 -7 6 26 67 37 67
17 0 15 42 -2 65 -18 21 -26 24 -62 19 -49 -7 -62 3 -69 54 -3 23 1 37 14 49
14 12 15 19 7 30 -15 17 -38 17 -45 -2 -4 -10 -20 -15 -45 -15 -32 0 -39 4
-39 19 0 13 -9 21 -30 26 l-30 7 35 41 c20 23 44 45 53 49 10 4 0 7 -26 7 -24
1 -50 8 -58 16 -15 14 -48 10 -39 -6 3 -4 -8 -3 -25 2 -37 14 -38 20 -1 41 36
20 32 53 -6 63 -24 6 -25 7 -8 25 17 19 17 20 -9 30 -15 5 -33 10 -41 10 -25
0 -27 21 -5 45 17 18 21 31 17 54 -5 23 -1 33 18 47 23 17 23 18 5 31 -10 7
-25 11 -33 8 -7 -3 -20 1 -27 9 -10 13 -10 20 3 40 15 22 15 24 -3 29 -23 6
-28 47 -6 47 39 0 38 72 -2 78 -32 5 -30 10 29 80 6 8 8 27 5 45 -4 22 0 42
14 64 11 19 15 35 10 38 -13 8 -13 52 0 60 6 4 10 25 8 48 -2 36 9 56 27 45 6
-3 35 49 35 64 0 10 8 20 58 73 18 19 35 35 38 35 3 0 14 9 26 20 12 11 32 20
45 20 13 0 23 4 23 9 0 5 20 12 45 16 65 9 85 34 83 104 0 31 -5 64 -10 75 -7
12 -6 22 1 29 14 14 87 37 118 37 16 0 25 9 33 35 6 19 18 35 26 35 9 0 12 5
9 10 -3 6 -2 10 3 10 5 0 15 12 23 28 16 31 34 52 45 52 15 0 44 34 44 50 0
10 7 20 15 24 8 3 15 12 15 21 0 8 4 15 9 15 5 0 14 14 21 30 7 17 15 30 19
30 3 0 12 14 19 30 8 17 20 30 27 30 7 0 27 11 43 25 17 14 37 25 46 25 9 0
16 5 16 10 0 6 13 10 29 10 17 0 33 -4 36 -10z m8631 -37 c-3 -8 -2 -12 3 -9
9 6 45 -31 54 -56 3 -9 0 -23 -6 -33 -16 -20 -47 -10 -47 16 0 10 -6 19 -14
19 -28 0 -46 -12 -46 -30 0 -11 -4 -22 -10 -25 -5 -3 -10 -2 -10 4 0 5 -10 11
-22 13 -18 2 -23 9 -21 31 2 30 36 79 61 88 26 9 64 -2 58 -18z m-1564 -409
c17 -9 44 -18 61 -20 17 -2 35 -8 41 -14 5 -5 18 -10 28 -10 10 0 18 -5 18
-11 0 -15 51 -59 68 -59 15 0 16 -46 1 -55 -6 -4 -35 -4 -64 0 -46 5 -62 13
-101 51 -26 24 -52 44 -58 44 -21 1 -53 36 -58 63 -4 22 -2 27 14 27 10 0 33
-7 50 -16z m3828 -665 c0 -11 -5 -29 -10 -39 -7 -13 -7 -21 0 -25 5 -3 10 -15
10 -26 0 -10 4 -19 8 -19 5 0 13 -10 19 -23 9 -18 7 -28 -9 -47 -10 -13 -15
-26 -11 -29 5 -3 19 -27 32 -53 l24 -48 -21 -19 c-12 -10 -22 -24 -22 -30 0
-17 25 -41 42 -41 36 0 51 -51 21 -69 -16 -10 -15 -14 15 -42 24 -21 32 -36
29 -50 -4 -14 3 -28 19 -42 30 -25 31 -37 3 -37 -12 0 -35 -6 -52 -14 -18 -8
-40 -16 -50 -20 -9 -3 -20 -14 -23 -23 -4 -10 -18 -28 -32 -39 -15 -14 -22
-27 -17 -34 6 -10 11 -9 22 5 7 11 13 15 13 11 0 -4 7 0 16 9 16 16 30 15 86
-6 23 -10 37 -33 38 -65 0 -6 -13 -17 -30 -24 -35 -14 -40 -45 -10 -55 11 -3
20 -13 20 -21 0 -13 12 -18 33 -15 4 0 7 -7 7 -16 0 -9 3 -14 6 -10 11 11 55
-39 49 -55 -16 -42 -177 -23 -183 21 -2 11 1 21 7 21 6 0 11 7 11 16 0 24 -35
12 -38 -14 -3 -17 -10 -22 -31 -22 -16 0 -35 7 -42 16 -7 9 -24 20 -37 25 -18
7 -22 14 -17 27 4 9 12 34 18 55 8 31 7 40 -7 50 -8 7 -18 26 -22 43 -5 27 -1
35 35 66 55 47 54 63 -5 54 -35 -4 -45 -3 -41 7 2 6 7 23 11 37 6 19 5 21 -3
10 -8 -11 -11 -12 -11 -2 0 7 -5 10 -11 6 -8 -5 -10 2 -6 22 18 88 19 97 9 91
-16 -10 -20 35 -6 68 7 17 13 44 14 60 0 17 10 49 22 73 l23 43 -22 19 c-27
21 -29 42 -7 60 8 8 23 30 32 49 9 20 18 39 19 42 2 4 -8 9 -22 13 -29 7 -31
18 -9 51 13 20 25 25 55 25 33 0 39 -3 39 -21z m-6646 -654 c16 23 36 11 36
-21 0 -13 10 -34 21 -45 18 -18 25 -20 40 -11 23 15 39 -6 17 -22 -9 -6 -19
-26 -22 -44 -4 -17 -12 -32 -17 -32 -5 0 -9 -5 -9 -10 0 -6 15 -8 40 -4 33 5
40 4 40 -9 0 -9 9 -21 20 -27 36 -19 24 -44 -27 -59 -35 -11 -48 -11 -51 -3
-2 7 -8 12 -14 12 -16 0 -37 32 -38 58 0 20 -10 26 -47 25 -6 0 -9 6 -6 13 3
8 0 21 -6 28 -8 10 -9 16 -1 21 16 10 12 45 -5 45 -16 0 -17 33 -2 58 5 7 8
27 7 45 -3 50 3 57 7 8 4 -38 6 -41 17 -26z m278 -308 c9 -7 19 -30 23 -50 7
-36 7 -36 35 -22 32 17 40 12 40 -27 0 -31 -6 -34 -34 -13 -17 13 -21 11 -40
-17 -27 -40 -37 -40 -57 -1 -15 29 -17 31 -32 16 -13 -14 -19 -14 -32 -3 -18
15 -15 91 6 116 14 17 68 18 91 1z m-4522 -1337 c32 -32 25 -69 -19 -115 -35
-36 -37 -42 -24 -57 14 -15 11 -19 -32 -38 -35 -16 -50 -19 -58 -11 -15 15 3
45 29 49 36 7 39 22 6 34 -23 9 -32 19 -32 35 0 16 -8 27 -26 33 -33 13 -25
23 41 50 30 12 55 26 55 31 0 17 40 9 60 -11z"/>
<path d="M1005 5270 c-3 -5 -21 -10 -38 -10 -21 0 -38 -7 -47 -20 -10 -14 -26
-20 -52 -20 -34 0 -38 -3 -38 -25 0 -26 4 -29 50 -39 27 -5 50 -50 50 -94 0
-12 5 -22 10 -22 6 0 10 -7 10 -15 0 -8 5 -15 10 -15 6 0 10 -7 10 -15 0 -35
98 -61 155 -41 14 5 29 -2 52 -24 39 -37 46 -37 63 -5 11 20 12 35 3 68 -6 23
-9 56 -6 73 3 20 -3 45 -16 70 -12 21 -21 44 -21 50 0 15 -55 74 -69 74 -6 0
-11 5 -11 10 0 6 -24 10 -54 10 -30 0 -58 -4 -61 -10z"/>
<path d="M9564 11898 c-7 -11 7 -58 17 -58 5 0 9 4 9 9 0 5 80 12 178 16 195
7 212 9 194 27 -13 13 -390 19 -398 6z"/>
<path d="M8184 7237 c-17 -7 -38 -19 -47 -27 -9 -8 -23 -21 -32 -28 -12 -10
-14 -23 -9 -45 3 -18 10 -33 15 -35 5 -2 9 -17 9 -33 0 -26 37 -79 55 -79 3 0
16 -9 28 -21 17 -15 29 -19 52 -14 66 14 128 17 121 6 -5 -7 2 -11 16 -11 28
0 46 27 54 77 3 21 7 44 9 51 4 12 -53 75 -115 126 -28 23 -83 46 -107 45 -10
0 -32 -6 -49 -12z"/>
<path d="M8025 6894 c-20 -19 -35 -24 -54 -21 -25 5 -82 -13 -107 -34 -25 -21
-4 -39 47 -39 37 0 49 -4 49 -15 0 -9 7 -18 15 -21 9 -4 15 -19 15 -38 0 -17
9 -51 20 -75 11 -24 20 -49 20 -57 0 -23 23 -64 35 -64 15 0 24 39 34 150 5
47 12 95 15 106 5 13 3 25 -3 28 -6 4 -11 23 -11 42 0 19 -4 34 -10 34 -5 0
-10 7 -10 15 0 23 -24 18 -55 -11z"/>
<path d="M5262 6773 c-7 -2 -17 -13 -22 -24 -14 -25 23 -92 82 -151 34 -34 39
-43 25 -46 -9 -2 -17 -7 -17 -12 0 -5 -11 -10 -25 -12 l-25 -3 22 -35 c26 -42
59 -130 53 -140 -3 -4 1 -13 9 -19 11 -9 18 -5 35 22 12 19 21 39 21 45 0 6 9
17 19 24 17 12 19 25 17 103 -3 81 -5 91 -24 100 -11 5 -26 20 -33 32 -7 13
-16 23 -21 23 -4 0 -8 10 -8 23 0 13 -5 28 -12 35 -7 7 -9 12 -4 12 4 0 1 7
-8 15 -14 14 -58 19 -84 8z"/>
<path d="M16755 6719 c-20 -12 -48 -19 -82 -19 -53 0 -53 0 -53 -31 0 -22 9
-40 30 -59 17 -15 30 -32 30 -38 0 -5 19 -30 41 -56 43 -49 93 -76 138 -76 15
0 37 -9 49 -20 23 -22 89 -30 100 -13 4 5 15 13 25 16 15 6 17 13 11 39 -4 18
-6 45 -5 61 1 15 -3 27 -9 27 -5 0 -10 8 -10 18 0 19 -51 95 -84 125 -11 10
-31 20 -45 23 -14 3 -34 9 -43 15 -27 14 -60 10 -93 -12z m100 -58 c3 -5 -2
-16 -10 -24 -24 -25 -19 -56 11 -63 29 -7 44 7 44 42 0 28 20 36 44 18 11 -7
23 -11 27 -8 17 10 9 -71 -9 -92 -29 -34 -63 -43 -117 -32 -48 10 -77 32 -109
79 -15 24 -15 27 1 46 35 38 102 58 118 34z"/>
<path d="M18016 6646 c-36 -6 -50 -14 -58 -32 -6 -13 -14 -24 -17 -24 -4 0 -8
-12 -9 -27 -1 -16 -7 -29 -12 -31 -6 -2 -10 -12 -10 -22 0 -10 -9 -22 -20 -25
-11 -3 -20 -11 -20 -16 0 -6 -4 -8 -9 -4 -5 3 -12 -4 -16 -14 -7 -22 12 -64
44 -98 12 -12 21 -26 21 -30 0 -5 9 -15 20 -23 11 -8 20 -24 20 -37 0 -13 8
-24 22 -29 31 -9 51 21 43 66 -6 35 -5 36 35 46 22 6 43 7 46 3 7 -12 51 -11
59 1 3 6 17 10 30 10 13 0 27 5 30 10 3 6 15 10 26 10 11 0 22 7 25 15 4 8 10
13 14 10 5 -3 14 8 22 25 8 20 31 40 65 58 61 31 68 55 29 96 -17 19 -33 26
-60 26 -20 0 -53 8 -74 19 -43 22 -171 31 -246 17z m200 -90 c8 -8 14 -30 14
-50 0 -63 -84 -106 -143 -73 -55 30 -68 56 -51 101 9 25 44 20 44 -5 0 -28 35
-58 60 -52 23 6 34 35 26 69 -5 20 -3 24 15 24 11 0 27 -6 35 -14z"/>
<path d="M13835 6370 c-3 -5 -18 -10 -32 -10 -23 0 -73 -30 -111 -67 -14 -14
-19 -15 -72 -17 -41 -1 -57 -34 -21 -43 12 -3 21 -9 21 -14 0 -5 7 -9 16 -9 8
0 35 -22 60 -49 24 -26 62 -61 84 -76 40 -27 42 -28 98 -15 31 7 66 19 77 26
26 18 65 18 65 0 0 -8 5 -18 11 -22 17 -10 49 36 49 72 0 32 -20 84 -32 84 -5
0 -8 6 -8 13 0 6 -13 22 -28 34 -16 12 -43 36 -60 53 -18 16 -41 30 -51 30
-11 0 -23 5 -26 10 -3 6 -12 10 -20 10 -8 0 -17 -4 -20 -10z m35 -101 c0 -4
-4 -11 -10 -14 -15 -9 -12 -34 5 -52 22 -21 45 0 45 42 0 29 2 32 25 27 18 -3
32 -17 44 -43 18 -37 18 -39 1 -59 -9 -11 -22 -20 -29 -20 -6 0 -11 -4 -11
-10 0 -14 -116 -12 -143 3 -32 18 -57 48 -57 69 0 10 4 18 8 18 5 0 17 8 28
18 10 10 28 23 38 29 20 11 56 6 56 -8z"/>
<path d="M5283 6276 c-4 -8 -33 -27 -63 -42 -30 -15 -61 -34 -68 -41 -8 -7
-35 -23 -60 -34 -26 -12 -51 -27 -57 -34 -5 -7 -21 -15 -35 -19 -29 -6 -60
-56 -60 -96 0 -16 -4 -32 -10 -35 -5 -3 -10 -15 -10 -26 0 -11 -9 -29 -20 -41
-25 -27 -25 -38 -1 -31 10 3 31 -3 45 -12 24 -16 27 -16 43 0 19 19 28 55 14
55 -5 0 -11 9 -14 19 -6 26 32 61 66 61 17 0 27 5 27 15 0 8 16 21 35 29 19 8
35 20 35 25 0 6 11 13 24 17 13 3 32 22 44 43 16 27 31 40 52 44 25 6 30 11
30 36 0 20 8 34 26 46 21 13 24 19 13 26 -21 13 -47 11 -56 -5z"/>
<path d="M5486 6058 c-18 -30 -27 -71 -18 -83 4 -6 19 -16 35 -22 15 -7 27
-17 27 -22 0 -13 -42 -22 -55 -11 -6 5 -17 5 -25 0 -12 -8 -13 -13 -2 -30 24
-38 10 -60 -39 -60 -10 0 -19 -4 -19 -9 0 -20 46 -41 87 -41 30 0 43 -4 43
-14 0 -8 6 -16 13 -19 10 -3 10 -9 0 -26 -13 -21 -18 -81 -7 -81 13 0 50 25
62 42 7 10 35 29 62 43 27 14 51 29 55 35 4 6 11 8 16 5 5 -4 9 3 9 14 0 12 3
20 8 20 20 -3 32 2 32 16 0 13 -24 20 -52 16 -3 0 -5 7 -4 17 2 9 7 17 12 18
5 0 22 6 37 12 16 7 39 12 52 12 34 0 39 14 19 55 -22 47 -56 63 -146 70 -104
9 -113 12 -126 40 -15 32 -56 34 -76 3z"/>
<path d="M5668 5508 c-44 -15 -58 -24 -58 -39 0 -10 5 -19 11 -19 16 0 36 -23
52 -62 8 -19 34 -56 58 -82 36 -39 48 -46 80 -46 21 0 41 -4 44 -10 3 -5 15
-10 26 -10 10 0 19 -4 19 -10 0 -5 9 -10 20 -10 11 0 20 -4 20 -10 0 -20 21
-9 30 15 15 40 3 58 -36 50 -31 -5 -34 -4 -34 18 0 25 25 44 35 27 10 -16 45
-11 45 5 0 9 -11 27 -25 41 -14 14 -25 29 -25 34 0 21 -30 8 -51 -22 -27 -39
-49 -57 -67 -58 -19 0 -102 85 -102 105 0 24 25 45 54 45 23 0 26 -4 22 -26
-6 -29 2 -54 15 -54 6 0 19 9 31 20 12 11 32 20 45 20 51 0 14 57 -56 86 -44
19 -84 17 -153 -8z"/>
<path d="M6214 4804 c-10 -16 -24 -35 -33 -42 -10 -8 -15 -31 -15 -75 -1 -60
0 -62 26 -65 18 -2 31 4 41 19 9 11 30 24 49 28 28 6 33 11 36 38 3 26 -2 34
-27 49 -17 10 -37 31 -45 47 l-14 30 -18 -29z"/>
<path d="M12575 2730 c-3 -6 -4 -19 0 -29 4 -14 0 -23 -15 -31 -21 -11 -51
-69 -43 -83 3 -4 11 -3 19 4 11 9 21 9 39 1 30 -14 31 -26 5 -52 -25 -25 -26
-46 -2 -59 16 -10 15 -10 -3 -11 -13 -1 -15 -4 -6 -7 10 -4 11 -7 1 -13 -8 -5
-10 -18 -6 -34 5 -22 12 -26 42 -26 20 0 49 -9 65 -20 l28 -21 7 25 c8 33 55
58 72 40 7 -7 12 -26 12 -43 0 -24 3 -28 20 -24 30 8 41 34 24 58 -8 10 -14
31 -14 45 0 26 -1 27 -54 22 -29 -2 -56 0 -59 5 -4 6 -1 24 5 41 14 37 7 48
-22 32 -18 -9 -24 -8 -40 12 -17 20 -17 25 -4 45 21 33 18 50 -16 85 -16 17
-30 35 -30 39 0 12 -17 11 -25 -1z"/>
<path d="M12190 2411 c0 -17 4 -32 9 -35 4 -3 4 -26 -2 -51 -12 -53 -9 -59 26
-46 31 12 38 4 61 -66 25 -75 101 -144 129 -116 4 3 -4 21 -18 39 -33 43 -32
59 10 100 19 18 35 40 35 49 0 22 -59 20 -76 -2 -9 -14 -16 -15 -24 -7 -9 9
-8 20 5 44 19 37 13 50 -15 32 -29 -18 -58 -15 -65 8 -3 11 -15 25 -26 30 -10
6 -19 20 -19 30 0 11 -7 20 -15 20 -10 0 -15 -10 -15 -29z"/>
<path d="M12872 2340 c-12 -11 -35 -20 -51 -20 -20 0 -40 -10 -61 -31 -28 -28
-35 -31 -74 -25 -32 5 -46 3 -56 -9 -7 -8 -18 -15 -26 -15 -19 0 -26 -17 -15
-38 7 -14 6 -24 -4 -38 -32 -42 -9 -86 51 -98 18 -4 40 -16 50 -27 16 -18 17
-21 1 -55 -30 -62 -17 -82 32 -47 23 16 25 15 44 -11 17 -24 24 -27 56 -21 98
16 101 15 101 -11 0 -16 4 -23 11 -18 8 5 10 -1 7 -20 -5 -23 -3 -27 13 -23
11 3 19 0 19 -7 0 -6 9 -17 20 -24 11 -6 26 -28 34 -47 8 -19 22 -35 31 -35
22 0 120 56 154 88 7 7 21 11 30 10 13 -3 15 -14 13 -55 -3 -58 5 -65 58 -50
21 6 28 12 19 14 -16 4 -43 46 -44 69 0 6 -7 23 -15 38 -11 21 -11 33 -3 59
11 30 16 77 14 122 -1 15 -7 11 -27 -19 -24 -35 -28 -38 -39 -22 -7 9 -11 26
-8 37 7 25 -16 79 -33 79 -20 0 -37 40 -36 83 2 34 0 38 -13 27 -8 -7 -15 -19
-15 -26 0 -18 -24 -18 -39 0 -7 8 -15 31 -18 53 -6 41 -28 73 -49 73 -7 0 -19
8 -26 18 -12 16 -59 42 -77 42 -4 0 -17 -9 -29 -20z"/>
<path d="M12257 635 c-15 -19 -23 -35 -17 -35 15 0 12 -31 -6 -65 -11 -22 -14
-44 -9 -82 6 -46 10 -53 39 -67 30 -14 34 -21 39 -67 7 -57 20 -79 48 -79 16
0 19 8 19 55 0 30 -4 55 -10 55 -5 0 -10 7 -10 16 0 8 -4 13 -9 10 -9 -6 -21
26 -21 60 0 11 -9 29 -20 39 -21 19 -27 73 -11 91 5 5 12 30 16 57 9 59 -7 63
-48 12z"/>
<path d="M12048 591 c-13 -29 -28 -51 -37 -51 -8 0 -30 -14 -47 -31 -31 -30
-32 -33 -17 -55 9 -15 13 -34 9 -49 -5 -18 1 -32 24 -57 l29 -33 1 62 c0 34 5
65 10 68 6 3 10 19 10 35 0 18 9 38 24 52 25 24 42 93 25 104 -6 3 -20 -17
-31 -45z"/>
<path d="M13316 632 c-3 -3 -6 -16 -6 -29 0 -15 -9 -27 -25 -35 -18 -8 -25
-19 -25 -38 0 -15 -7 -33 -15 -40 -12 -10 -20 -6 -46 20 -39 38 -76 39 -70 0
10 -64 7 -85 -14 -85 -15 0 -21 8 -23 33 -3 29 -7 32 -35 32 -18 0 -42 3 -54
6 -32 9 -31 -28 1 -49 25 -17 42 -57 23 -57 -6 0 -26 5 -44 12 -28 10 -36 10
-50 -4 -13 -14 -14 -20 -4 -32 21 -26 10 -61 -21 -64 -16 -2 -28 1 -28 7 0 6
-7 11 -15 11 -18 0 -18 -8 0 -40 8 -14 14 -40 15 -57 0 -26 -4 -33 -20 -33
-12 0 -22 9 -26 24 -3 13 -16 28 -29 34 -20 9 -25 8 -30 -8 -4 -11 -15 -25
-26 -30 -10 -6 -19 -18 -20 -28 0 -14 -2 -14 -9 3 -8 19 -9 19 -9 -2 -1 -12
-4 -23 -8 -26 -5 -2 -2 -2 5 0 18 4 72 -37 72 -55 0 -10 -8 -8 -34 8 -31 19
-36 19 -48 5 -7 -9 -22 -25 -32 -35 -11 -11 -16 -20 -12 -20 14 0 -20 -28 -40
-33 -10 -2 128 -5 308 -6 321 -1 326 -1 321 19 -5 17 0 20 32 20 32 0 36 -2
30 -20 -6 -19 -2 -20 76 -20 63 0 79 3 72 13 -5 6 -10 23 -11 37 0 13 -10 31
-22 40 -23 17 -40 69 -40 122 0 21 -4 38 -10 38 -5 0 -10 9 -10 20 0 11 5 20
12 20 6 0 8 3 4 7 -3 4 9 23 28 42 37 38 41 54 38 154 -1 41 -6 57 -16 57 -8
0 -16 6 -19 13 -6 15 -83 57 -91 49z"/>
<path d="M12126 603 c-3 -4 -6 -20 -6 -37 0 -17 -9 -50 -20 -74 -29 -64 -35
-106 -16 -121 10 -8 14 -22 10 -36 -3 -13 -1 -26 5 -29 7 -5 11 3 11 18 0 14
6 40 14 58 8 18 22 59 31 90 9 32 25 68 36 82 25 32 24 39 -6 34 -14 -3 -25
-2 -25 2 0 11 -27 20 -34 13z"/>
<path d="M12192 368 c-6 -6 -12 -19 -12 -28 0 -9 -4 -20 -8 -25 -5 -6 -17 -36
-26 -67 -17 -55 -15 -98 5 -98 5 0 9 -7 9 -16 0 -8 4 -13 8 -10 4 2 16 -6 27
-18 l20 -23 12 25 c17 31 17 154 1 170 -9 9 -9 12 0 12 18 0 14 42 -6 68 -14
18 -20 20 -30 10z"/>
</g>
</svg>
